ISO-10303-21;
HEADER;
/* Generated by software containing ST-Developer
 * from STEP Tools, Inc. (www.steptools.com) 
 */
/* OPTION: using custom renumber hook */

FILE_DESCRIPTION(
/* description */ ('STEP AP242 Edition 2',
'CAx-IF Rec.Pracs.---Representation and Presentation of Product Manufa
cturing Information (PMI)---4.0---2014-10-13',
'CAx-IF Rec.Pracs.---3D Tessellated Geometry---0.4---2014-09-14','2;1',
'CAx-IF Rec.Pracs.---User Defined Attributes---1.5---2016-08-15'),
/* implementation_level */ '2;1');

FILE_NAME(
/* name */ '6a0c71adfe8de24d44fadce3',
/* time_stamp */ '2026-05-19T14:20:30Z',
/* author */ (''),
/* organization */ (''),
/* preprocessor_version */ 'ST-DEVELOPER v20',
/* originating_system */ 'ONSHAPE BY PTC INC, 1.215',
/* authorisation */ '  ');

FILE_SCHEMA (('AP242_MANAGED_MODEL_BASED_3D_ENGINEERING_MIM_LF { 1 0 10303 442 3 1 4 }'));
ENDSEC;

DATA;
#10=(
BOUNDED_SURFACE()
B_SPLINE_SURFACE(3,2,((#1421,#1422,#1423),(#1424,#1425,#1426),(#1427,#1428,
#1429),(#1430,#1431,#1432),(#1433,#1434,#1435),(#1436,#1437,#1438),(#1439,
#1440,#1441),(#1442,#1443,#1444),(#1445,#1446,#1447),(#1448,#1449,#1450),
(#1451,#1452,#1453),(#1454,#1455,#1456),(#1457,#1458,#1459),(#1460,#1461,
#1462),(#1463,#1464,#1465),(#1466,#1467,#1468),(#1469,#1470,#1471),(#1472,
#1473,#1474),(#1475,#1476,#1477),(#1478,#1479,#1480),(#1481,#1482,#1483),
(#1484,#1485,#1486),(#1487,#1488,#1489),(#1490,#1491,#1492),(#1493,#1494,
#1495),(#1496,#1497,#1498),(#1499,#1500,#1501),(#1502,#1503,#1504),(#1505,
#1506,#1507),(#1508,#1509,#1510),(#1511,#1512,#1513)),.UNSPECIFIED.,.F.,
 .F.,.F.)
B_SPLINE_SURFACE_WITH_KNOTS((4,1,1,1,1,1,1,1,1,1,1,1,1,1,1,1,1,1,1,1,1,
1,1,1,1,1,1,1,4),(3,3),(0.0625066308048824,0.0659562334269861,0.0694058360490897,
0.0728554386711934,0.0763050412932971,0.0832042465375045,0.0901034517817118,
0.0935530544038155,0.0970026570259192,0.100452259648023,0.103901862270127,
0.10735146489223,0.110801067514334,0.114250670136438,0.117700272758541,
0.121149875380645,0.124599478002749,0.131498683246956,0.13494828586906,
0.138397888491163,0.141847491113267,0.145297093735371,0.148746696357474,
0.152196298979578,0.155645901601682,0.159095504223785,0.162545106845889,
0.165994709467993,0.1728939147122),(0.,1.),.UNSPECIFIED.)
GEOMETRIC_REPRESENTATION_ITEM()
RATIONAL_B_SPLINE_SURFACE(((1.,0.557504090398277,1.),(1.,0.557504090398597,
1.),(1.,0.558600284943726,1.),(1.,0.563527192909574,1.),(1.,0.571443404506459,
1.),(1.,0.585158577938716,1.),(1.,0.607494920056403,1.),(1.,0.631940693816872,
1.),(1.,0.651179109494508,1.),(1.,0.664580570020079,1.),(1.,0.676728433036254,
1.),(1.,0.687394503313373,1.),(1.,0.69600969517037,1.),(1.,0.702299963982942,
1.),(1.,0.706202773135482,1.),(1.,0.707553857590131,1.),(1.,0.706222458256778,
1.),(1.,0.701076612638216,1.),(1.,0.690815696561307,1.),(1.,0.676755646193461,
1.),(1.,0.664517739542308,1.),(1.,0.650915544004058,1.),(1.,0.636692568755592,
1.),(1.,0.622129436528657,1.),(1.,0.607564204308563,1.),(1.,0.593970308992537,
1.),(1.,0.581765675952191,1.),(1.,0.571377781747211,1.),(1.,0.560848120153492,
1.),(1.,0.557504090400465,1.),(1.,0.557504090398278,1.)))
REPRESENTATION_ITEM('')
SURFACE()
);
#11=B_SPLINE_CURVE_WITH_KNOTS('',3,(#1333,#1334,#1335,#1336,#1337,#1338,
#1339,#1340,#1341,#1342,#1343,#1344,#1345,#1346,#1347,#1348,#1349,#1350,
#1351,#1352,#1353,#1354,#1355,#1356,#1357,#1358,#1359,#1360,#1361,#1362),
 .UNSPECIFIED.,.F.,.F.,(4,1,1,1,1,1,1,1,1,1,1,1,1,1,1,1,1,1,1,1,1,1,1,1,
1,1,1,4),(0.,0.00495187664095241,0.00990375328190482,0.0148556299228572,
0.0198075065638096,0.0297112598457145,0.0396150131276193,0.0445668897685717,
0.0495187664095241,0.0544706430504765,0.0594225196914289,0.0643743963323813,
0.0693262729733338,0.0742781496142862,0.0792300262552386,0.084181902896191,
0.0891337795371434,0.0990375328190482,0.103989409460001,0.108941286100953,
0.113893162741905,0.118845039382858,0.12379691602381,0.128748792664763,
0.133700669305715,0.138652545946668,0.148556299228572,0.158460052510477),
 .UNSPECIFIED.);
#12=B_SPLINE_CURVE_WITH_KNOTS('',3,(#1369,#1370,#1371,#1372,#1373,#1374,
#1375,#1376,#1377,#1378,#1379,#1380,#1381,#1382,#1383,#1384,#1385,#1386,
#1387),.UNSPECIFIED.,.T.,.F.,(1,1,1,1,1,1,1,1,1,1,1,1,1,1,1,1,1,1,1,1,1,
1,1),(-0.0135276643275851,-0.00901844288505674,-0.00450922144252837,5.63785129692462E-18,
0.00450922144252837,0.00901844288505674,0.0135276643275851,0.0180368857701135,
0.0225461072126418,0.0270553286551702,0.0315645500976986,0.0360737715402269,
0.0405829929827553,0.0450922144252837,0.049601435867812,0.0541106573103404,
0.0586198787528687,0.0631291001953971,0.0676383216379255,0.0721475430804538,
0.0766567645229822,0.0811659859655106,0.0856752074080389),.UNSPECIFIED.);
#13=B_SPLINE_CURVE_WITH_KNOTS('',3,(#1393,#1394,#1395,#1396,#1397,#1398,
#1399,#1400,#1401,#1402,#1403,#1404,#1405,#1406,#1407,#1408,#1409,#1410,
#1411,#1412,#1413,#1414,#1415,#1416),.UNSPECIFIED.,.F.,.F.,(4,1,1,1,1,1,
1,1,1,1,1,1,1,1,1,1,1,1,1,1,1,4),(0.,0.00636768556577414,0.0127353711315483,
0.0191030566973224,0.0254707422630966,0.0318384278288707,0.0350222706117578,
0.0382061133946448,0.0413899561775319,0.044573798960419,0.0509414845261931,
0.0541253273090802,0.0573091700919673,0.0604930128748543,0.0636768556577414,
0.0700445412235155,0.0764122267892897,0.0827799123550638,0.0859637551379509,
0.089147597920838,0.0955152834866121,0.101882969052386),.UNSPECIFIED.);
#14=CONTEXT_DEPENDENT_SHAPE_REPRESENTATION(#24,#1533);
#15=CONTEXT_DEPENDENT_SHAPE_REPRESENTATION(#25,#1535);
#16=CONTEXT_DEPENDENT_SHAPE_REPRESENTATION(#26,#1537);
#17=CONTEXT_DEPENDENT_SHAPE_REPRESENTATION(#27,#1539);
#18=CONTEXT_DEPENDENT_SHAPE_REPRESENTATION(#28,#1541);
#19=NEXT_ASSEMBLY_USAGE_OCCURRENCE('NAUO1','Part 3','Part 3',#1542,#1543,
'');
#20=NEXT_ASSEMBLY_USAGE_OCCURRENCE('NAUO2','Part 4','Part 4',#1542,#1544,
'');
#21=NEXT_ASSEMBLY_USAGE_OCCURRENCE('NAUO3','Part 1','Part 1',#1542,#1545,
'');
#22=NEXT_ASSEMBLY_USAGE_OCCURRENCE('NAUO4','Part 5','Part 5',#1542,#1546,
'');
#23=NEXT_ASSEMBLY_USAGE_OCCURRENCE('NAUO5','Part 2','Part 2',#1542,#1547,
'');
#24=(
REPRESENTATION_RELATIONSHIP(' ',' ',#815,#814)
REPRESENTATION_RELATIONSHIP_WITH_TRANSFORMATION(#29)
SHAPE_REPRESENTATION_RELATIONSHIP()
);
#25=(
REPRESENTATION_RELATIONSHIP(' ',' ',#816,#814)
REPRESENTATION_RELATIONSHIP_WITH_TRANSFORMATION(#30)
SHAPE_REPRESENTATION_RELATIONSHIP()
);
#26=(
REPRESENTATION_RELATIONSHIP(' ',' ',#817,#814)
REPRESENTATION_RELATIONSHIP_WITH_TRANSFORMATION(#31)
SHAPE_REPRESENTATION_RELATIONSHIP()
);
#27=(
REPRESENTATION_RELATIONSHIP(' ',' ',#818,#814)
REPRESENTATION_RELATIONSHIP_WITH_TRANSFORMATION(#32)
SHAPE_REPRESENTATION_RELATIONSHIP()
);
#28=(
REPRESENTATION_RELATIONSHIP(' ',' ',#819,#814)
REPRESENTATION_RELATIONSHIP_WITH_TRANSFORMATION(#33)
SHAPE_REPRESENTATION_RELATIONSHIP()
);
#29=ITEM_DEFINED_TRANSFORMATION(' ',' ',#820,#837);
#30=ITEM_DEFINED_TRANSFORMATION(' ',' ',#820,#857);
#31=ITEM_DEFINED_TRANSFORMATION(' ',' ',#820,#867);
#32=ITEM_DEFINED_TRANSFORMATION(' ',' ',#820,#894);
#33=ITEM_DEFINED_TRANSFORMATION(' ',' ',#820,#908);
#34=SHAPE_REPRESENTATION_RELATIONSHIP('','',#815,#39);
#35=SHAPE_REPRESENTATION_RELATIONSHIP('','',#816,#40);
#36=SHAPE_REPRESENTATION_RELATIONSHIP('','',#817,#41);
#37=SHAPE_REPRESENTATION_RELATIONSHIP('','',#818,#42);
#38=SHAPE_REPRESENTATION_RELATIONSHIP('','',#819,#43);
#39=ADVANCED_BREP_SHAPE_REPRESENTATION('',(#803),#1517);
#40=ADVANCED_BREP_SHAPE_REPRESENTATION('',(#804),#1518);
#41=ADVANCED_BREP_SHAPE_REPRESENTATION('',(#805),#1519);
#42=ADVANCED_BREP_SHAPE_REPRESENTATION('',(#806),#1520);
#43=ADVANCED_BREP_SHAPE_REPRESENTATION('',(#807),#1521);
#44=PLANE('',#824);
#45=PLANE('',#834);
#46=PLANE('',#835);
#47=PLANE('',#836);
#48=PLANE('',#838);
#49=PLANE('',#842);
#50=PLANE('',#843);
#51=PLANE('',#849);
#52=PLANE('',#850);
#53=PLANE('',#853);
#54=PLANE('',#856);
#55=PLANE('',#858);
#56=PLANE('',#860);
#57=PLANE('',#864);
#58=PLANE('',#871);
#59=PLANE('',#872);
#60=PLANE('',#873);
#61=PLANE('',#874);
#62=PLANE('',#875);
#63=PLANE('',#876);
#64=PLANE('',#877);
#65=PLANE('',#878);
#66=PLANE('',#879);
#67=PLANE('',#880);
#68=PLANE('',#885);
#69=PLANE('',#895);
#70=PLANE('',#899);
#71=PLANE('',#904);
#72=LINE('',#1145,#125);
#73=LINE('',#1149,#126);
#74=LINE('',#1151,#127);
#75=LINE('',#1153,#128);
#76=LINE('',#1155,#129);
#77=LINE('',#1159,#130);
#78=LINE('',#1173,#131);
#79=LINE('',#1174,#132);
#80=LINE('',#1179,#133);
#81=LINE('',#1182,#134);
#82=LINE('',#1184,#135);
#83=LINE('',#1186,#136);
#84=LINE('',#1192,#137);
#85=LINE('',#1194,#138);
#86=LINE('',#1196,#139);
#87=LINE('',#1198,#140);
#88=LINE('',#1202,#141);
#89=LINE('',#1206,#142);
#90=LINE('',#1207,#143);
#91=LINE('',#1215,#144);
#92=LINE('',#1217,#145);
#93=LINE('',#1219,#146);
#94=LINE('',#1249,#147);
#95=LINE('',#1252,#148);
#96=LINE('',#1254,#149);
#97=LINE('',#1256,#150);
#98=LINE('',#1258,#151);
#99=LINE('',#1261,#152);
#100=LINE('',#1263,#153);
#101=LINE('',#1265,#154);
#102=LINE('',#1267,#155);
#103=LINE('',#1270,#156);
#104=LINE('',#1272,#157);
#105=LINE('',#1274,#158);
#106=LINE('',#1276,#159);
#107=LINE('',#1278,#160);
#108=LINE('',#1280,#161);
#109=LINE('',#1282,#162);
#110=LINE('',#1284,#163);
#111=LINE('',#1286,#164);
#112=LINE('',#1288,#165);
#113=LINE('',#1290,#166);
#114=LINE('',#1292,#167);
#115=LINE('',#1294,#168);
#116=LINE('',#1296,#169);
#117=LINE('',#1298,#170);
#118=LINE('',#1300,#171);
#119=LINE('',#1303,#172);
#120=LINE('',#1305,#173);
#121=LINE('',#1307,#174);
#122=LINE('',#1327,#175);
#123=LINE('',#1331,#176);
#124=LINE('',#1364,#177);
#125=VECTOR('',#915,1.);
#126=VECTOR('',#918,1.);
#127=VECTOR('',#921,1.);
#128=VECTOR('',#922,1.);
#129=VECTOR('',#923,1.);
#130=VECTOR('',#928,1.);
#131=VECTOR('',#945,1.);
#132=VECTOR('',#946,1.);
#133=VECTOR('',#955,1.);
#134=VECTOR('',#956,1.);
#135=VECTOR('',#957,1.);
#136=VECTOR('',#958,1.);
#137=VECTOR('',#965,1.);
#138=VECTOR('',#968,1.);
#139=VECTOR('',#969,1.);
#140=VECTOR('',#970,1.);
#141=VECTOR('',#975,1.);
#142=VECTOR('',#978,1.);
#143=VECTOR('',#979,1.);
#144=VECTOR('',#990,1.);
#145=VECTOR('',#991,1.);
#146=VECTOR('',#992,1.);
#147=VECTOR('',#1037,1.);
#148=VECTOR('',#1038,1.);
#149=VECTOR('',#1039,1.);
#150=VECTOR('',#1040,1.);
#151=VECTOR('',#1043,1.);
#152=VECTOR('',#1044,1.);
#153=VECTOR('',#1045,1.);
#154=VECTOR('',#1046,1.);
#155=VECTOR('',#1049,1.);
#156=VECTOR('',#1050,1.);
#157=VECTOR('',#1051,1.);
#158=VECTOR('',#1052,1.);
#159=VECTOR('',#1055,1.);
#160=VECTOR('',#1056,1.);
#161=VECTOR('',#1057,1.);
#162=VECTOR('',#1060,1.);
#163=VECTOR('',#1061,1.);
#164=VECTOR('',#1062,1.);
#165=VECTOR('',#1065,1.);
#166=VECTOR('',#1066,1.);
#167=VECTOR('',#1067,1.);
#168=VECTOR('',#1070,1.);
#169=VECTOR('',#1071,1.);
#170=VECTOR('',#1072,1.);
#171=VECTOR('',#1075,1.);
#172=VECTOR('',#1076,1.);
#173=VECTOR('',#1077,1.);
#174=VECTOR('',#1078,1.);
#175=VECTOR('',#1113,1.);
#176=VECTOR('',#1118,1.);
#177=VECTOR('',#1119,1.);
#178=ORIENTED_EDGE('',*,*,#362,.T.);
#179=ORIENTED_EDGE('',*,*,#363,.F.);
#180=ORIENTED_EDGE('',*,*,#364,.F.);
#181=ORIENTED_EDGE('',*,*,#365,.T.);
#182=ORIENTED_EDGE('',*,*,#366,.T.);
#183=ORIENTED_EDGE('',*,*,#367,.F.);
#184=ORIENTED_EDGE('',*,*,#368,.F.);
#185=ORIENTED_EDGE('',*,*,#363,.T.);
#186=ORIENTED_EDGE('',*,*,#369,.T.);
#187=ORIENTED_EDGE('',*,*,#370,.F.);
#188=ORIENTED_EDGE('',*,*,#371,.F.);
#189=ORIENTED_EDGE('',*,*,#367,.T.);
#190=ORIENTED_EDGE('',*,*,#372,.T.);
#191=ORIENTED_EDGE('',*,*,#373,.F.);
#192=ORIENTED_EDGE('',*,*,#374,.T.);
#193=ORIENTED_EDGE('',*,*,#375,.F.);
#194=ORIENTED_EDGE('',*,*,#376,.T.);
#195=ORIENTED_EDGE('',*,*,#365,.F.);
#196=ORIENTED_EDGE('',*,*,#377,.F.);
#197=ORIENTED_EDGE('',*,*,#370,.T.);
#198=ORIENTED_EDGE('',*,*,#374,.F.);
#199=ORIENTED_EDGE('',*,*,#372,.F.);
#200=ORIENTED_EDGE('',*,*,#364,.T.);
#201=ORIENTED_EDGE('',*,*,#368,.T.);
#202=ORIENTED_EDGE('',*,*,#371,.T.);
#203=ORIENTED_EDGE('',*,*,#377,.T.);
#204=ORIENTED_EDGE('',*,*,#375,.T.);
#205=ORIENTED_EDGE('',*,*,#373,.T.);
#206=ORIENTED_EDGE('',*,*,#362,.F.);
#207=ORIENTED_EDGE('',*,*,#376,.F.);
#208=ORIENTED_EDGE('',*,*,#369,.F.);
#209=ORIENTED_EDGE('',*,*,#366,.F.);
#210=ORIENTED_EDGE('',*,*,#378,.T.);
#211=ORIENTED_EDGE('',*,*,#379,.F.);
#212=ORIENTED_EDGE('',*,*,#380,.F.);
#213=ORIENTED_EDGE('',*,*,#381,.T.);
#214=ORIENTED_EDGE('',*,*,#382,.F.);
#215=ORIENTED_EDGE('',*,*,#381,.F.);
#216=ORIENTED_EDGE('',*,*,#383,.T.);
#217=ORIENTED_EDGE('',*,*,#384,.T.);
#218=ORIENTED_EDGE('',*,*,#385,.T.);
#219=ORIENTED_EDGE('',*,*,#384,.F.);
#220=ORIENTED_EDGE('',*,*,#386,.F.);
#221=ORIENTED_EDGE('',*,*,#387,.T.);
#222=ORIENTED_EDGE('',*,*,#388,.F.);
#223=ORIENTED_EDGE('',*,*,#389,.T.);
#224=ORIENTED_EDGE('',*,*,#390,.T.);
#225=ORIENTED_EDGE('',*,*,#391,.T.);
#226=ORIENTED_EDGE('',*,*,#387,.F.);
#227=ORIENTED_EDGE('',*,*,#392,.F.);
#228=ORIENTED_EDGE('',*,*,#379,.T.);
#229=ORIENTED_EDGE('',*,*,#393,.F.);
#230=ORIENTED_EDGE('',*,*,#394,.T.);
#231=ORIENTED_EDGE('',*,*,#380,.T.);
#232=ORIENTED_EDGE('',*,*,#392,.T.);
#233=ORIENTED_EDGE('',*,*,#386,.T.);
#234=ORIENTED_EDGE('',*,*,#383,.F.);
#235=ORIENTED_EDGE('',*,*,#393,.T.);
#236=ORIENTED_EDGE('',*,*,#395,.F.);
#237=ORIENTED_EDGE('',*,*,#396,.T.);
#238=ORIENTED_EDGE('',*,*,#397,.F.);
#239=ORIENTED_EDGE('',*,*,#389,.F.);
#240=ORIENTED_EDGE('',*,*,#378,.F.);
#241=ORIENTED_EDGE('',*,*,#382,.T.);
#242=ORIENTED_EDGE('',*,*,#385,.F.);
#243=ORIENTED_EDGE('',*,*,#391,.F.);
#244=ORIENTED_EDGE('',*,*,#394,.F.);
#245=ORIENTED_EDGE('',*,*,#398,.T.);
#246=ORIENTED_EDGE('',*,*,#395,.T.);
#247=ORIENTED_EDGE('',*,*,#390,.F.);
#248=ORIENTED_EDGE('',*,*,#397,.T.);
#249=ORIENTED_EDGE('',*,*,#396,.F.);
#250=ORIENTED_EDGE('',*,*,#398,.F.);
#251=ORIENTED_EDGE('',*,*,#388,.T.);
#252=ORIENTED_EDGE('',*,*,#399,.F.);
#253=ORIENTED_EDGE('',*,*,#399,.T.);
#254=ORIENTED_EDGE('',*,*,#400,.F.);
#255=ORIENTED_EDGE('',*,*,#401,.T.);
#256=ORIENTED_EDGE('',*,*,#401,.F.);
#257=ORIENTED_EDGE('',*,*,#402,.T.);
#258=ORIENTED_EDGE('',*,*,#402,.F.);
#259=ORIENTED_EDGE('',*,*,#403,.T.);
#260=ORIENTED_EDGE('',*,*,#403,.F.);
#261=ORIENTED_EDGE('',*,*,#400,.T.);
#262=ORIENTED_EDGE('',*,*,#404,.T.);
#263=ORIENTED_EDGE('',*,*,#405,.F.);
#264=ORIENTED_EDGE('',*,*,#404,.F.);
#265=ORIENTED_EDGE('',*,*,#405,.T.);
#266=ORIENTED_EDGE('',*,*,#406,.T.);
#267=ORIENTED_EDGE('',*,*,#407,.T.);
#268=ORIENTED_EDGE('',*,*,#408,.F.);
#269=ORIENTED_EDGE('',*,*,#409,.T.);
#270=ORIENTED_EDGE('',*,*,#410,.T.);
#271=ORIENTED_EDGE('',*,*,#411,.T.);
#272=ORIENTED_EDGE('',*,*,#412,.F.);
#273=ORIENTED_EDGE('',*,*,#413,.T.);
#274=ORIENTED_EDGE('',*,*,#414,.F.);
#275=ORIENTED_EDGE('',*,*,#415,.T.);
#276=ORIENTED_EDGE('',*,*,#416,.T.);
#277=ORIENTED_EDGE('',*,*,#417,.F.);
#278=ORIENTED_EDGE('',*,*,#418,.F.);
#279=ORIENTED_EDGE('',*,*,#419,.F.);
#280=ORIENTED_EDGE('',*,*,#420,.T.);
#281=ORIENTED_EDGE('',*,*,#417,.T.);
#282=ORIENTED_EDGE('',*,*,#421,.F.);
#283=ORIENTED_EDGE('',*,*,#422,.F.);
#284=ORIENTED_EDGE('',*,*,#423,.T.);
#285=ORIENTED_EDGE('',*,*,#419,.T.);
#286=ORIENTED_EDGE('',*,*,#424,.F.);
#287=ORIENTED_EDGE('',*,*,#425,.F.);
#288=ORIENTED_EDGE('',*,*,#426,.T.);
#289=ORIENTED_EDGE('',*,*,#422,.T.);
#290=ORIENTED_EDGE('',*,*,#427,.T.);
#291=ORIENTED_EDGE('',*,*,#428,.T.);
#292=ORIENTED_EDGE('',*,*,#429,.F.);
#293=ORIENTED_EDGE('',*,*,#425,.T.);
#294=ORIENTED_EDGE('',*,*,#430,.T.);
#295=ORIENTED_EDGE('',*,*,#431,.T.);
#296=ORIENTED_EDGE('',*,*,#432,.F.);
#297=ORIENTED_EDGE('',*,*,#433,.T.);
#298=ORIENTED_EDGE('',*,*,#429,.T.);
#299=ORIENTED_EDGE('',*,*,#434,.T.);
#300=ORIENTED_EDGE('',*,*,#430,.F.);
#301=ORIENTED_EDGE('',*,*,#435,.T.);
#302=ORIENTED_EDGE('',*,*,#406,.F.);
#303=ORIENTED_EDGE('',*,*,#436,.T.);
#304=ORIENTED_EDGE('',*,*,#412,.T.);
#305=ORIENTED_EDGE('',*,*,#437,.T.);
#306=ORIENTED_EDGE('',*,*,#414,.T.);
#307=ORIENTED_EDGE('',*,*,#420,.F.);
#308=ORIENTED_EDGE('',*,*,#423,.F.);
#309=ORIENTED_EDGE('',*,*,#426,.F.);
#310=ORIENTED_EDGE('',*,*,#432,.T.);
#311=ORIENTED_EDGE('',*,*,#438,.T.);
#312=ORIENTED_EDGE('',*,*,#427,.F.);
#313=ORIENTED_EDGE('',*,*,#424,.T.);
#314=ORIENTED_EDGE('',*,*,#421,.T.);
#315=ORIENTED_EDGE('',*,*,#418,.T.);
#316=ORIENTED_EDGE('',*,*,#416,.F.);
#317=ORIENTED_EDGE('',*,*,#439,.T.);
#318=ORIENTED_EDGE('',*,*,#410,.F.);
#319=ORIENTED_EDGE('',*,*,#440,.T.);
#320=ORIENTED_EDGE('',*,*,#408,.T.);
#321=ORIENTED_EDGE('',*,*,#441,.T.);
#322=ORIENTED_EDGE('',*,*,#434,.F.);
#323=ORIENTED_EDGE('',*,*,#428,.F.);
#324=ORIENTED_EDGE('',*,*,#438,.F.);
#325=ORIENTED_EDGE('',*,*,#431,.F.);
#326=ORIENTED_EDGE('',*,*,#435,.F.);
#327=ORIENTED_EDGE('',*,*,#433,.F.);
#328=ORIENTED_EDGE('',*,*,#441,.F.);
#329=ORIENTED_EDGE('',*,*,#407,.F.);
#330=ORIENTED_EDGE('',*,*,#437,.F.);
#331=ORIENTED_EDGE('',*,*,#411,.F.);
#332=ORIENTED_EDGE('',*,*,#439,.F.);
#333=ORIENTED_EDGE('',*,*,#415,.F.);
#334=ORIENTED_EDGE('',*,*,#436,.F.);
#335=ORIENTED_EDGE('',*,*,#409,.F.);
#336=ORIENTED_EDGE('',*,*,#440,.F.);
#337=ORIENTED_EDGE('',*,*,#413,.F.);
#338=ORIENTED_EDGE('',*,*,#442,.T.);
#339=ORIENTED_EDGE('',*,*,#443,.T.);
#340=ORIENTED_EDGE('',*,*,#444,.T.);
#341=ORIENTED_EDGE('',*,*,#445,.F.);
#342=ORIENTED_EDGE('',*,*,#446,.T.);
#343=ORIENTED_EDGE('',*,*,#447,.F.);
#344=ORIENTED_EDGE('',*,*,#442,.F.);
#345=ORIENTED_EDGE('',*,*,#444,.F.);
#346=ORIENTED_EDGE('',*,*,#448,.T.);
#347=ORIENTED_EDGE('',*,*,#449,.F.);
#348=ORIENTED_EDGE('',*,*,#450,.F.);
#349=ORIENTED_EDGE('',*,*,#451,.T.);
#350=ORIENTED_EDGE('',*,*,#448,.F.);
#351=ORIENTED_EDGE('',*,*,#447,.T.);
#352=ORIENTED_EDGE('',*,*,#452,.T.);
#353=ORIENTED_EDGE('',*,*,#450,.T.);
#354=ORIENTED_EDGE('',*,*,#453,.T.);
#355=ORIENTED_EDGE('',*,*,#445,.T.);
#356=ORIENTED_EDGE('',*,*,#443,.F.);
#357=ORIENTED_EDGE('',*,*,#449,.T.);
#358=ORIENTED_EDGE('',*,*,#452,.F.);
#359=ORIENTED_EDGE('',*,*,#446,.F.);
#360=ORIENTED_EDGE('',*,*,#453,.F.);
#361=ORIENTED_EDGE('',*,*,#451,.F.);
#362=EDGE_CURVE('',#454,#455,#521,.T.);
#363=EDGE_CURVE('',#456,#455,#72,.T.);
#364=EDGE_CURVE('',#457,#456,#522,.T.);
#365=EDGE_CURVE('',#457,#454,#73,.T.);
#366=EDGE_CURVE('',#455,#458,#74,.T.);
#367=EDGE_CURVE('',#459,#458,#75,.T.);
#368=EDGE_CURVE('',#456,#459,#76,.T.);
#369=EDGE_CURVE('',#458,#460,#523,.T.);
#370=EDGE_CURVE('',#461,#460,#77,.T.);
#371=EDGE_CURVE('',#459,#461,#524,.T.);
#372=EDGE_CURVE('',#462,#462,#525,.T.);
#373=EDGE_CURVE('',#463,#463,#526,.T.);
#374=EDGE_CURVE('',#464,#464,#527,.T.);
#375=EDGE_CURVE('',#465,#465,#528,.T.);
#376=EDGE_CURVE('',#460,#454,#78,.T.);
#377=EDGE_CURVE('',#461,#457,#79,.T.);
#378=EDGE_CURVE('',#466,#467,#80,.T.);
#379=EDGE_CURVE('',#468,#467,#81,.T.);
#380=EDGE_CURVE('',#469,#468,#82,.T.);
#381=EDGE_CURVE('',#469,#466,#83,.T.);
#382=EDGE_CURVE('',#466,#470,#529,.T.);
#383=EDGE_CURVE('',#469,#471,#530,.T.);
#384=EDGE_CURVE('',#471,#470,#84,.T.);
#385=EDGE_CURVE('',#472,#470,#85,.T.);
#386=EDGE_CURVE('',#473,#471,#86,.T.);
#387=EDGE_CURVE('',#473,#472,#87,.T.);
#388=EDGE_CURVE('',#474,#474,#531,.T.);
#389=EDGE_CURVE('',#467,#475,#88,.T.);
#390=EDGE_CURVE('',#475,#476,#532,.T.);
#391=EDGE_CURVE('',#476,#472,#89,.T.);
#392=EDGE_CURVE('',#468,#473,#90,.T.);
#393=EDGE_CURVE('',#477,#477,#533,.T.);
#394=EDGE_CURVE('',#478,#478,#534,.T.);
#395=EDGE_CURVE('',#479,#476,#91,.T.);
#396=EDGE_CURVE('',#479,#480,#92,.T.);
#397=EDGE_CURVE('',#475,#480,#93,.F.);
#398=EDGE_CURVE('',#480,#479,#535,.T.);
#399=EDGE_CURVE('',#481,#481,#536,.F.);
#400=EDGE_CURVE('',#482,#482,#537,.T.);
#401=EDGE_CURVE('',#483,#483,#538,.T.);
#402=EDGE_CURVE('',#484,#484,#539,.T.);
#403=EDGE_CURVE('',#485,#485,#540,.T.);
#404=EDGE_CURVE('',#486,#486,#541,.F.);
#405=EDGE_CURVE('',#487,#487,#542,.F.);
#406=EDGE_CURVE('',#488,#489,#94,.T.);
#407=EDGE_CURVE('',#489,#490,#95,.T.);
#408=EDGE_CURVE('',#491,#490,#96,.T.);
#409=EDGE_CURVE('',#491,#488,#97,.F.);
#410=EDGE_CURVE('',#492,#493,#98,.T.);
#411=EDGE_CURVE('',#493,#494,#99,.F.);
#412=EDGE_CURVE('',#495,#494,#100,.T.);
#413=EDGE_CURVE('',#495,#492,#101,.T.);
#414=EDGE_CURVE('',#496,#497,#102,.T.);
#415=EDGE_CURVE('',#496,#498,#103,.T.);
#416=EDGE_CURVE('',#498,#499,#104,.T.);
#417=EDGE_CURVE('',#497,#499,#105,.T.);
#418=EDGE_CURVE('',#500,#499,#106,.T.);
#419=EDGE_CURVE('',#501,#500,#107,.T.);
#420=EDGE_CURVE('',#501,#497,#108,.T.);
#421=EDGE_CURVE('',#502,#500,#109,.T.);
#422=EDGE_CURVE('',#503,#502,#110,.T.);
#423=EDGE_CURVE('',#503,#501,#111,.T.);
#424=EDGE_CURVE('',#504,#502,#112,.T.);
#425=EDGE_CURVE('',#505,#504,#113,.T.);
#426=EDGE_CURVE('',#505,#503,#114,.T.);
#427=EDGE_CURVE('',#504,#506,#115,.T.);
#428=EDGE_CURVE('',#506,#507,#116,.F.);
#429=EDGE_CURVE('',#505,#507,#117,.T.);
#430=EDGE_CURVE('',#508,#509,#118,.T.);
#431=EDGE_CURVE('',#509,#510,#119,.T.);
#432=EDGE_CURVE('',#511,#510,#120,.T.);
#433=EDGE_CURVE('',#511,#508,#121,.F.);
#434=EDGE_CURVE('',#507,#509,#543,.T.);
#435=EDGE_CURVE('',#508,#489,#544,.T.);
#436=EDGE_CURVE('',#488,#495,#545,.T.);
#437=EDGE_CURVE('',#494,#496,#546,.T.);
#438=EDGE_CURVE('',#510,#506,#547,.F.);
#439=EDGE_CURVE('',#498,#493,#548,.F.);
#440=EDGE_CURVE('',#492,#491,#549,.F.);
#441=EDGE_CURVE('',#490,#511,#550,.F.);
#442=EDGE_CURVE('',#512,#513,#551,.T.);
#443=EDGE_CURVE('',#513,#512,#122,.T.);
#444=EDGE_CURVE('',#514,#514,#552,.T.);
#445=EDGE_CURVE('',#515,#512,#123,.F.);
#446=EDGE_CURVE('',#515,#516,#11,.T.);
#447=EDGE_CURVE('',#513,#516,#124,.T.);
#448=EDGE_CURVE('',#517,#517,#553,.T.);
#449=EDGE_CURVE('',#518,#518,#12,.T.);
#450=EDGE_CURVE('',#519,#520,#554,.T.);
#451=EDGE_CURVE('',#519,#520,#13,.T.);
#452=EDGE_CURVE('',#516,#519,#555,.F.);
#453=EDGE_CURVE('',#520,#515,#556,.F.);
#454=VERTEX_POINT('',#1143);
#455=VERTEX_POINT('',#1144);
#456=VERTEX_POINT('',#1146);
#457=VERTEX_POINT('',#1148);
#458=VERTEX_POINT('',#1152);
#459=VERTEX_POINT('',#1154);
#460=VERTEX_POINT('',#1158);
#461=VERTEX_POINT('',#1160);
#462=VERTEX_POINT('',#1164);
#463=VERTEX_POINT('',#1166);
#464=VERTEX_POINT('',#1169);
#465=VERTEX_POINT('',#1171);
#466=VERTEX_POINT('',#1180);
#467=VERTEX_POINT('',#1181);
#468=VERTEX_POINT('',#1183);
#469=VERTEX_POINT('',#1185);
#470=VERTEX_POINT('',#1189);
#471=VERTEX_POINT('',#1191);
#472=VERTEX_POINT('',#1195);
#473=VERTEX_POINT('',#1197);
#474=VERTEX_POINT('',#1201);
#475=VERTEX_POINT('',#1203);
#476=VERTEX_POINT('',#1205);
#477=VERTEX_POINT('',#1210);
#478=VERTEX_POINT('',#1212);
#479=VERTEX_POINT('',#1216);
#480=VERTEX_POINT('',#1218);
#481=VERTEX_POINT('',#1225);
#482=VERTEX_POINT('',#1230);
#483=VERTEX_POINT('',#1233);
#484=VERTEX_POINT('',#1236);
#485=VERTEX_POINT('',#1239);
#486=VERTEX_POINT('',#1244);
#487=VERTEX_POINT('',#1246);
#488=VERTEX_POINT('',#1250);
#489=VERTEX_POINT('',#1251);
#490=VERTEX_POINT('',#1253);
#491=VERTEX_POINT('',#1255);
#492=VERTEX_POINT('',#1259);
#493=VERTEX_POINT('',#1260);
#494=VERTEX_POINT('',#1262);
#495=VERTEX_POINT('',#1264);
#496=VERTEX_POINT('',#1268);
#497=VERTEX_POINT('',#1269);
#498=VERTEX_POINT('',#1271);
#499=VERTEX_POINT('',#1273);
#500=VERTEX_POINT('',#1277);
#501=VERTEX_POINT('',#1279);
#502=VERTEX_POINT('',#1283);
#503=VERTEX_POINT('',#1285);
#504=VERTEX_POINT('',#1289);
#505=VERTEX_POINT('',#1291);
#506=VERTEX_POINT('',#1295);
#507=VERTEX_POINT('',#1297);
#508=VERTEX_POINT('',#1301);
#509=VERTEX_POINT('',#1302);
#510=VERTEX_POINT('',#1304);
#511=VERTEX_POINT('',#1306);
#512=VERTEX_POINT('',#1325);
#513=VERTEX_POINT('',#1326);
#514=VERTEX_POINT('',#1330);
#515=VERTEX_POINT('',#1332);
#516=VERTEX_POINT('',#1363);
#517=VERTEX_POINT('',#1368);
#518=VERTEX_POINT('',#1388);
#519=VERTEX_POINT('',#1391);
#520=VERTEX_POINT('',#1392);
#521=CIRCLE('',#822,0.035);
#522=CIRCLE('',#823,0.035);
#523=CIRCLE('',#826,0.035);
#524=CIRCLE('',#827,0.035);
#525=CIRCLE('',#829,0.0125);
#526=CIRCLE('',#830,0.0125);
#527=CIRCLE('',#832,0.0125);
#528=CIRCLE('',#833,0.0125);
#529=CIRCLE('',#840,0.03);
#530=CIRCLE('',#841,0.03);
#531=CIRCLE('',#844,0.00500000000000022);
#532=CIRCLE('',#845,0.015);
#533=CIRCLE('',#847,0.0125);
#534=CIRCLE('',#848,0.0125);
#535=CIRCLE('',#852,0.015);
#536=CIRCLE('',#855,0.00500000000000022);
#537=CIRCLE('',#859,0.06);
#538=CIRCLE('',#861,0.05);
#539=CIRCLE('',#863,0.05);
#540=CIRCLE('',#865,0.06);
#541=CIRCLE('',#869,0.00450000000000023);
#542=CIRCLE('',#870,0.00450000000000023);
#543=CIRCLE('',#881,0.008);
#544=CIRCLE('',#882,0.008);
#545=CIRCLE('',#883,0.008);
#546=CIRCLE('',#884,0.008);
#547=CIRCLE('',#886,0.008);
#548=CIRCLE('',#887,0.008);
#549=CIRCLE('',#888,0.008);
#550=CIRCLE('',#889,0.008);
#551=CIRCLE('',#896,0.05);
#552=CIRCLE('',#898,0.05);
#553=CIRCLE('',#901,0.0115);
#554=CIRCLE('',#903,0.0775);
#555=CIRCLE('',#905,0.015);
#556=CIRCLE('',#906,0.015);
#557=EDGE_LOOP('',(#178,#179,#180,#181));
#558=EDGE_LOOP('',(#182,#183,#184,#185));
#559=EDGE_LOOP('',(#186,#187,#188,#189));
#560=EDGE_LOOP('',(#190));
#561=EDGE_LOOP('',(#191));
#562=EDGE_LOOP('',(#192));
#563=EDGE_LOOP('',(#193));
#564=EDGE_LOOP('',(#194,#195,#196,#197));
#565=EDGE_LOOP('',(#198));
#566=EDGE_LOOP('',(#199));
#567=EDGE_LOOP('',(#200,#201,#202,#203));
#568=EDGE_LOOP('',(#204));
#569=EDGE_LOOP('',(#205));
#570=EDGE_LOOP('',(#206,#207,#208,#209));
#571=EDGE_LOOP('',(#210,#211,#212,#213));
#572=EDGE_LOOP('',(#214,#215,#216,#217));
#573=EDGE_LOOP('',(#218,#219,#220,#221));
#574=EDGE_LOOP('',(#222));
#575=EDGE_LOOP('',(#223,#224,#225,#226,#227,#228));
#576=EDGE_LOOP('',(#229));
#577=EDGE_LOOP('',(#230));
#578=EDGE_LOOP('',(#231,#232,#233,#234));
#579=EDGE_LOOP('',(#235));
#580=EDGE_LOOP('',(#236,#237,#238,#239,#240,#241,#242,#243));
#581=EDGE_LOOP('',(#244));
#582=EDGE_LOOP('',(#245,#246,#247,#248));
#583=EDGE_LOOP('',(#249,#250));
#584=EDGE_LOOP('',(#251));
#585=EDGE_LOOP('',(#252));
#586=EDGE_LOOP('',(#253));
#587=EDGE_LOOP('',(#254));
#588=EDGE_LOOP('',(#255));
#589=EDGE_LOOP('',(#256));
#590=EDGE_LOOP('',(#257));
#591=EDGE_LOOP('',(#258));
#592=EDGE_LOOP('',(#259));
#593=EDGE_LOOP('',(#260));
#594=EDGE_LOOP('',(#261));
#595=EDGE_LOOP('',(#262));
#596=EDGE_LOOP('',(#263));
#597=EDGE_LOOP('',(#264));
#598=EDGE_LOOP('',(#265));
#599=EDGE_LOOP('',(#266,#267,#268,#269));
#600=EDGE_LOOP('',(#270,#271,#272,#273));
#601=EDGE_LOOP('',(#274,#275,#276,#277));
#602=EDGE_LOOP('',(#278,#279,#280,#281));
#603=EDGE_LOOP('',(#282,#283,#284,#285));
#604=EDGE_LOOP('',(#286,#287,#288,#289));
#605=EDGE_LOOP('',(#290,#291,#292,#293));
#606=EDGE_LOOP('',(#294,#295,#296,#297));
#607=EDGE_LOOP('',(#298,#299,#300,#301,#302,#303,#304,#305,#306,#307,#308,
#309));
#608=EDGE_LOOP('',(#310,#311,#312,#313,#314,#315,#316,#317,#318,#319,#320,
#321));
#609=EDGE_LOOP('',(#322,#323,#324,#325));
#610=EDGE_LOOP('',(#326,#327,#328,#329));
#611=EDGE_LOOP('',(#330,#331,#332,#333));
#612=EDGE_LOOP('',(#334,#335,#336,#337));
#613=EDGE_LOOP('',(#338,#339));
#614=EDGE_LOOP('',(#340));
#615=EDGE_LOOP('',(#341,#342,#343,#344));
#616=EDGE_LOOP('',(#345));
#617=EDGE_LOOP('',(#346));
#618=EDGE_LOOP('',(#347));
#619=EDGE_LOOP('',(#348,#349));
#620=EDGE_LOOP('',(#350));
#621=EDGE_LOOP('',(#351,#352,#353,#354,#355,#356));
#622=EDGE_LOOP('',(#357));
#623=EDGE_LOOP('',(#358,#359,#360,#361));
#624=FACE_BOUND('',#557,.T.);
#625=FACE_BOUND('',#558,.T.);
#626=FACE_BOUND('',#559,.T.);
#627=FACE_BOUND('',#560,.T.);
#628=FACE_BOUND('',#561,.T.);
#629=FACE_BOUND('',#562,.T.);
#630=FACE_BOUND('',#563,.T.);
#631=FACE_BOUND('',#564,.T.);
#632=FACE_BOUND('',#565,.T.);
#633=FACE_BOUND('',#566,.T.);
#634=FACE_BOUND('',#567,.T.);
#635=FACE_BOUND('',#568,.T.);
#636=FACE_BOUND('',#569,.T.);
#637=FACE_BOUND('',#570,.T.);
#638=FACE_BOUND('',#571,.T.);
#639=FACE_BOUND('',#572,.T.);
#640=FACE_BOUND('',#573,.T.);
#641=FACE_BOUND('',#574,.T.);
#642=FACE_BOUND('',#575,.T.);
#643=FACE_BOUND('',#576,.T.);
#644=FACE_BOUND('',#577,.T.);
#645=FACE_BOUND('',#578,.T.);
#646=FACE_BOUND('',#579,.T.);
#647=FACE_BOUND('',#580,.T.);
#648=FACE_BOUND('',#581,.T.);
#649=FACE_BOUND('',#582,.T.);
#650=FACE_BOUND('',#583,.T.);
#651=FACE_BOUND('',#584,.T.);
#652=FACE_BOUND('',#585,.T.);
#653=FACE_BOUND('',#586,.T.);
#654=FACE_BOUND('',#587,.T.);
#655=FACE_BOUND('',#588,.T.);
#656=FACE_BOUND('',#589,.T.);
#657=FACE_BOUND('',#590,.T.);
#658=FACE_BOUND('',#591,.T.);
#659=FACE_BOUND('',#592,.T.);
#660=FACE_BOUND('',#593,.T.);
#661=FACE_BOUND('',#594,.T.);
#662=FACE_BOUND('',#595,.T.);
#663=FACE_BOUND('',#596,.T.);
#664=FACE_BOUND('',#597,.T.);
#665=FACE_BOUND('',#598,.T.);
#666=FACE_BOUND('',#599,.T.);
#667=FACE_BOUND('',#600,.T.);
#668=FACE_BOUND('',#601,.T.);
#669=FACE_BOUND('',#602,.T.);
#670=FACE_BOUND('',#603,.T.);
#671=FACE_BOUND('',#604,.T.);
#672=FACE_BOUND('',#605,.T.);
#673=FACE_BOUND('',#606,.T.);
#674=FACE_BOUND('',#607,.T.);
#675=FACE_BOUND('',#608,.T.);
#676=FACE_BOUND('',#609,.T.);
#677=FACE_BOUND('',#610,.T.);
#678=FACE_BOUND('',#611,.T.);
#679=FACE_BOUND('',#612,.T.);
#680=FACE_BOUND('',#613,.T.);
#681=FACE_BOUND('',#614,.T.);
#682=FACE_BOUND('',#615,.T.);
#683=FACE_BOUND('',#616,.T.);
#684=FACE_BOUND('',#617,.T.);
#685=FACE_BOUND('',#618,.T.);
#686=FACE_BOUND('',#619,.T.);
#687=FACE_BOUND('',#620,.T.);
#688=FACE_BOUND('',#621,.T.);
#689=FACE_BOUND('',#622,.T.);
#690=FACE_BOUND('',#623,.T.);
#691=CYLINDRICAL_SURFACE('',#821,0.035);
#692=CYLINDRICAL_SURFACE('',#825,0.035);
#693=CYLINDRICAL_SURFACE('',#828,0.0125);
#694=CYLINDRICAL_SURFACE('',#831,0.0125);
#695=CYLINDRICAL_SURFACE('',#839,0.03);
#696=CYLINDRICAL_SURFACE('',#846,0.0125);
#697=CYLINDRICAL_SURFACE('',#851,0.015);
#698=CYLINDRICAL_SURFACE('',#854,0.00500000000000022);
#699=CYLINDRICAL_SURFACE('',#862,0.05);
#700=CYLINDRICAL_SURFACE('',#866,0.06);
#701=CYLINDRICAL_SURFACE('',#868,0.00450000000000023);
#702=CYLINDRICAL_SURFACE('',#890,0.008);
#703=CYLINDRICAL_SURFACE('',#891,0.008);
#704=CYLINDRICAL_SURFACE('',#892,0.008);
#705=CYLINDRICAL_SURFACE('',#893,0.008);
#706=CYLINDRICAL_SURFACE('',#897,0.05);
#707=CYLINDRICAL_SURFACE('',#900,0.0115);
#708=CYLINDRICAL_SURFACE('',#902,0.0775);
#709=CYLINDRICAL_SURFACE('',#907,0.05);
#710=ADVANCED_FACE('',(#624),#691,.T.);
#711=ADVANCED_FACE('',(#625),#44,.F.);
#712=ADVANCED_FACE('',(#626),#692,.T.);
#713=ADVANCED_FACE('',(#627,#628),#693,.F.);
#714=ADVANCED_FACE('',(#629,#630),#694,.F.);
#715=ADVANCED_FACE('',(#631),#45,.F.);
#716=ADVANCED_FACE('',(#632,#633,#634),#46,.T.);
#717=ADVANCED_FACE('',(#635,#636,#637),#47,.F.);
#718=ADVANCED_FACE('',(#638),#48,.F.);
#719=ADVANCED_FACE('',(#639),#695,.T.);
#720=ADVANCED_FACE('',(#640),#49,.F.);
#721=ADVANCED_FACE('',(#641,#642),#50,.F.);
#722=ADVANCED_FACE('',(#643,#644),#696,.F.);
#723=ADVANCED_FACE('',(#645,#646),#51,.F.);
#724=ADVANCED_FACE('',(#647,#648),#52,.T.);
#725=ADVANCED_FACE('',(#649),#697,.T.);
#726=ADVANCED_FACE('',(#650),#53,.F.);
#727=ADVANCED_FACE('',(#651,#652),#698,.F.);
#728=ADVANCED_FACE('',(#653),#54,.F.);
#729=ADVANCED_FACE('',(#654),#55,.F.);
#730=ADVANCED_FACE('',(#655),#56,.F.);
#731=ADVANCED_FACE('',(#656,#657),#699,.F.);
#732=ADVANCED_FACE('',(#658,#659),#57,.F.);
#733=ADVANCED_FACE('',(#660,#661),#700,.T.);
#734=ADVANCED_FACE('',(#662,#663),#701,.T.);
#735=ADVANCED_FACE('',(#664),#58,.T.);
#736=ADVANCED_FACE('',(#665,#666),#59,.T.);
#737=ADVANCED_FACE('',(#667),#60,.F.);
#738=ADVANCED_FACE('',(#668),#61,.F.);
#739=ADVANCED_FACE('',(#669),#62,.T.);
#740=ADVANCED_FACE('',(#670),#63,.T.);
#741=ADVANCED_FACE('',(#671),#64,.T.);
#742=ADVANCED_FACE('',(#672),#65,.F.);
#743=ADVANCED_FACE('',(#673),#66,.T.);
#744=ADVANCED_FACE('',(#674),#67,.T.);
#745=ADVANCED_FACE('',(#675),#68,.F.);
#746=ADVANCED_FACE('',(#676),#702,.T.);
#747=ADVANCED_FACE('',(#677),#703,.T.);
#748=ADVANCED_FACE('',(#678),#704,.T.);
#749=ADVANCED_FACE('',(#679),#705,.T.);
#750=ADVANCED_FACE('',(#680),#69,.T.);
#751=ADVANCED_FACE('',(#681,#682),#706,.T.);
#752=ADVANCED_FACE('',(#683),#70,.T.);
#753=ADVANCED_FACE('',(#684,#685),#707,.T.);
#754=ADVANCED_FACE('',(#686),#708,.F.);
#755=ADVANCED_FACE('',(#687,#688),#71,.T.);
#756=ADVANCED_FACE('',(#689),#709,.T.);
#757=ADVANCED_FACE('',(#690),#10,.T.);
#758=CLOSED_SHELL('',(#710,#711,#712,#713,#714,#715,#716,#717));
#759=CLOSED_SHELL('',(#718,#719,#720,#721,#722,#723,#724,#725,#726,#727,
#728));
#760=CLOSED_SHELL('',(#729,#730,#731,#732,#733));
#761=CLOSED_SHELL('',(#734,#735,#736,#737,#738,#739,#740,#741,#742,#743,
#744,#745,#746,#747,#748,#749));
#762=CLOSED_SHELL('',(#750,#751,#752,#753,#754,#755,#756,#757));
#763=STYLED_ITEM('',(#768),#803);
#764=STYLED_ITEM('',(#769),#804);
#765=STYLED_ITEM('',(#770),#805);
#766=STYLED_ITEM('',(#771),#806);
#767=STYLED_ITEM('',(#772),#807);
#768=PRESENTATION_STYLE_ASSIGNMENT((#773));
#769=PRESENTATION_STYLE_ASSIGNMENT((#774));
#770=PRESENTATION_STYLE_ASSIGNMENT((#775));
#771=PRESENTATION_STYLE_ASSIGNMENT((#776));
#772=PRESENTATION_STYLE_ASSIGNMENT((#777));
#773=SURFACE_STYLE_USAGE(.BOTH.,#778);
#774=SURFACE_STYLE_USAGE(.BOTH.,#779);
#775=SURFACE_STYLE_USAGE(.BOTH.,#780);
#776=SURFACE_STYLE_USAGE(.BOTH.,#781);
#777=SURFACE_STYLE_USAGE(.BOTH.,#782);
#778=SURFACE_SIDE_STYLE('',(#783));
#779=SURFACE_SIDE_STYLE('',(#784));
#780=SURFACE_SIDE_STYLE('',(#785));
#781=SURFACE_SIDE_STYLE('',(#786));
#782=SURFACE_SIDE_STYLE('',(#787));
#783=SURFACE_STYLE_FILL_AREA(#788);
#784=SURFACE_STYLE_FILL_AREA(#789);
#785=SURFACE_STYLE_FILL_AREA(#790);
#786=SURFACE_STYLE_FILL_AREA(#791);
#787=SURFACE_STYLE_FILL_AREA(#792);
#788=FILL_AREA_STYLE('',(#793));
#789=FILL_AREA_STYLE('',(#794));
#790=FILL_AREA_STYLE('',(#795));
#791=FILL_AREA_STYLE('',(#796));
#792=FILL_AREA_STYLE('',(#797));
#793=FILL_AREA_STYLE_COLOUR('',#798);
#794=FILL_AREA_STYLE_COLOUR('',#799);
#795=FILL_AREA_STYLE_COLOUR('',#800);
#796=FILL_AREA_STYLE_COLOUR('',#801);
#797=FILL_AREA_STYLE_COLOUR('',#802);
#798=COLOUR_RGB('',0.231372549019608,0.380392156862745,0.705882352941177);
#799=COLOUR_RGB('',0.917647058823529,0.917647058823529,0.917647058823529);
#800=COLOUR_RGB('',0.615686274509804,0.811764705882353,0.929411764705882);
#801=COLOUR_RGB('',0.768627450980392,0.886274509803922,0.952941176470588);
#802=COLOUR_RGB('',0.647058823529412,0.647058823529412,0.647058823529412);
#803=MANIFOLD_SOLID_BREP('Part 3',#758);
#804=MANIFOLD_SOLID_BREP('Part 4',#759);
#805=MANIFOLD_SOLID_BREP('Part 1',#760);
#806=MANIFOLD_SOLID_BREP('Part 5',#761);
#807=MANIFOLD_SOLID_BREP('Part 2',#762);
#808=SHAPE_DEFINITION_REPRESENTATION(#1531,#814);
#809=SHAPE_DEFINITION_REPRESENTATION(#1532,#815);
#810=SHAPE_DEFINITION_REPRESENTATION(#1534,#816);
#811=SHAPE_DEFINITION_REPRESENTATION(#1536,#817);
#812=SHAPE_DEFINITION_REPRESENTATION(#1538,#818);
#813=SHAPE_DEFINITION_REPRESENTATION(#1540,#819);
#814=SHAPE_REPRESENTATION('Assembly 1',(#820,#837,#857,#867,#894,#908),
#1516);
#815=SHAPE_REPRESENTATION('Part 3',(#820),#1517);
#816=SHAPE_REPRESENTATION('Part 4',(#820),#1518);
#817=SHAPE_REPRESENTATION('Part 1',(#820),#1519);
#818=SHAPE_REPRESENTATION('Part 5',(#820),#1520);
#819=SHAPE_REPRESENTATION('Part 2',(#820),#1521);
#820=AXIS2_PLACEMENT_3D('',#1140,#909,#910);
#821=AXIS2_PLACEMENT_3D('',#1141,#911,#912);
#822=AXIS2_PLACEMENT_3D('',#1142,#913,#914);
#823=AXIS2_PLACEMENT_3D('',#1147,#916,#917);
#824=AXIS2_PLACEMENT_3D('',#1150,#919,#920);
#825=AXIS2_PLACEMENT_3D('',#1156,#924,#925);
#826=AXIS2_PLACEMENT_3D('',#1157,#926,#927);
#827=AXIS2_PLACEMENT_3D('',#1161,#929,#930);
#828=AXIS2_PLACEMENT_3D('',#1162,#931,#932);
#829=AXIS2_PLACEMENT_3D('',#1163,#933,#934);
#830=AXIS2_PLACEMENT_3D('',#1165,#935,#936);
#831=AXIS2_PLACEMENT_3D('',#1167,#937,#938);
#832=AXIS2_PLACEMENT_3D('',#1168,#939,#940);
#833=AXIS2_PLACEMENT_3D('',#1170,#941,#942);
#834=AXIS2_PLACEMENT_3D('',#1172,#943,#944);
#835=AXIS2_PLACEMENT_3D('',#1175,#947,#948);
#836=AXIS2_PLACEMENT_3D('',#1176,#949,#950);
#837=AXIS2_PLACEMENT_3D('',#1177,#951,#952);
#838=AXIS2_PLACEMENT_3D('',#1178,#953,#954);
#839=AXIS2_PLACEMENT_3D('',#1187,#959,#960);
#840=AXIS2_PLACEMENT_3D('',#1188,#961,#962);
#841=AXIS2_PLACEMENT_3D('',#1190,#963,#964);
#842=AXIS2_PLACEMENT_3D('',#1193,#966,#967);
#843=AXIS2_PLACEMENT_3D('',#1199,#971,#972);
#844=AXIS2_PLACEMENT_3D('',#1200,#973,#974);
#845=AXIS2_PLACEMENT_3D('',#1204,#976,#977);
#846=AXIS2_PLACEMENT_3D('',#1208,#980,#981);
#847=AXIS2_PLACEMENT_3D('',#1209,#982,#983);
#848=AXIS2_PLACEMENT_3D('',#1211,#984,#985);
#849=AXIS2_PLACEMENT_3D('',#1213,#986,#987);
#850=AXIS2_PLACEMENT_3D('',#1214,#988,#989);
#851=AXIS2_PLACEMENT_3D('',#1220,#993,#994);
#852=AXIS2_PLACEMENT_3D('',#1221,#995,#996);
#853=AXIS2_PLACEMENT_3D('',#1222,#997,#998);
#854=AXIS2_PLACEMENT_3D('',#1223,#999,#1000);
#855=AXIS2_PLACEMENT_3D('',#1224,#1001,#1002);
#856=AXIS2_PLACEMENT_3D('',#1226,#1003,#1004);
#857=AXIS2_PLACEMENT_3D('',#1227,#1005,#1006);
#858=AXIS2_PLACEMENT_3D('',#1228,#1007,#1008);
#859=AXIS2_PLACEMENT_3D('',#1229,#1009,#1010);
#860=AXIS2_PLACEMENT_3D('',#1231,#1011,#1012);
#861=AXIS2_PLACEMENT_3D('',#1232,#1013,#1014);
#862=AXIS2_PLACEMENT_3D('',#1234,#1015,#1016);
#863=AXIS2_PLACEMENT_3D('',#1235,#1017,#1018);
#864=AXIS2_PLACEMENT_3D('',#1237,#1019,#1020);
#865=AXIS2_PLACEMENT_3D('',#1238,#1021,#1022);
#866=AXIS2_PLACEMENT_3D('',#1240,#1023,#1024);
#867=AXIS2_PLACEMENT_3D('',#1241,#1025,#1026);
#868=AXIS2_PLACEMENT_3D('',#1242,#1027,#1028);
#869=AXIS2_PLACEMENT_3D('',#1243,#1029,#1030);
#870=AXIS2_PLACEMENT_3D('',#1245,#1031,#1032);
#871=AXIS2_PLACEMENT_3D('',#1247,#1033,#1034);
#872=AXIS2_PLACEMENT_3D('',#1248,#1035,#1036);
#873=AXIS2_PLACEMENT_3D('',#1257,#1041,#1042);
#874=AXIS2_PLACEMENT_3D('',#1266,#1047,#1048);
#875=AXIS2_PLACEMENT_3D('',#1275,#1053,#1054);
#876=AXIS2_PLACEMENT_3D('',#1281,#1058,#1059);
#877=AXIS2_PLACEMENT_3D('',#1287,#1063,#1064);
#878=AXIS2_PLACEMENT_3D('',#1293,#1068,#1069);
#879=AXIS2_PLACEMENT_3D('',#1299,#1073,#1074);
#880=AXIS2_PLACEMENT_3D('',#1308,#1079,#1080);
#881=AXIS2_PLACEMENT_3D('',#1309,#1081,#1082);
#882=AXIS2_PLACEMENT_3D('',#1310,#1083,#1084);
#883=AXIS2_PLACEMENT_3D('',#1311,#1085,#1086);
#884=AXIS2_PLACEMENT_3D('',#1312,#1087,#1088);
#885=AXIS2_PLACEMENT_3D('',#1313,#1089,#1090);
#886=AXIS2_PLACEMENT_3D('',#1314,#1091,#1092);
#887=AXIS2_PLACEMENT_3D('',#1315,#1093,#1094);
#888=AXIS2_PLACEMENT_3D('',#1316,#1095,#1096);
#889=AXIS2_PLACEMENT_3D('',#1317,#1097,#1098);
#890=AXIS2_PLACEMENT_3D('',#1318,#1099,#1100);
#891=AXIS2_PLACEMENT_3D('',#1319,#1101,#1102);
#892=AXIS2_PLACEMENT_3D('',#1320,#1103,#1104);
#893=AXIS2_PLACEMENT_3D('',#1321,#1105,#1106);
#894=AXIS2_PLACEMENT_3D('',#1322,#1107,#1108);
#895=AXIS2_PLACEMENT_3D('',#1323,#1109,#1110);
#896=AXIS2_PLACEMENT_3D('',#1324,#1111,#1112);
#897=AXIS2_PLACEMENT_3D('',#1328,#1114,#1115);
#898=AXIS2_PLACEMENT_3D('',#1329,#1116,#1117);
#899=AXIS2_PLACEMENT_3D('',#1365,#1120,#1121);
#900=AXIS2_PLACEMENT_3D('',#1366,#1122,#1123);
#901=AXIS2_PLACEMENT_3D('',#1367,#1124,#1125);
#902=AXIS2_PLACEMENT_3D('',#1389,#1126,#1127);
#903=AXIS2_PLACEMENT_3D('',#1390,#1128,#1129);
#904=AXIS2_PLACEMENT_3D('',#1417,#1130,#1131);
#905=AXIS2_PLACEMENT_3D('',#1418,#1132,#1133);
#906=AXIS2_PLACEMENT_3D('',#1419,#1134,#1135);
#907=AXIS2_PLACEMENT_3D('',#1420,#1136,#1137);
#908=AXIS2_PLACEMENT_3D('',#1514,#1138,#1139);
#909=DIRECTION('',(0.,0.,1.));
#910=DIRECTION('',(1.,0.,0.));
#911=DIRECTION('',(0.,1.,0.));
#912=DIRECTION('',(0.,0.,1.));
#913=DIRECTION('',(0.,-1.,0.));
#914=DIRECTION('',(0.,0.,-1.));
#915=DIRECTION('',(0.,1.,0.));
#916=DIRECTION('',(0.,-1.,0.));
#917=DIRECTION('',(0.,0.,-1.));
#918=DIRECTION('',(0.,1.,0.));
#919=DIRECTION('',(1.,0.,0.));
#920=DIRECTION('',(0.,0.,-1.));
#921=DIRECTION('',(0.,0.,-1.));
#922=DIRECTION('',(0.,1.,0.));
#923=DIRECTION('',(0.,0.,-1.));
#924=DIRECTION('',(0.,1.,0.));
#925=DIRECTION('',(0.,0.,1.));
#926=DIRECTION('',(0.,-1.,0.));
#927=DIRECTION('',(0.,0.,-1.));
#928=DIRECTION('',(0.,1.,0.));
#929=DIRECTION('',(0.,-1.,0.));
#930=DIRECTION('',(0.,0.,-1.));
#931=DIRECTION('',(0.,1.,0.));
#932=DIRECTION('',(0.,0.,1.));
#933=DIRECTION('',(0.,-1.,0.));
#934=DIRECTION('',(0.,0.,-1.));
#935=DIRECTION('',(0.,-1.,0.));
#936=DIRECTION('',(0.,0.,-1.));
#937=DIRECTION('',(0.,1.,0.));
#938=DIRECTION('',(0.,0.,1.));
#939=DIRECTION('',(0.,-1.,0.));
#940=DIRECTION('',(0.,0.,-1.));
#941=DIRECTION('',(0.,-1.,0.));
#942=DIRECTION('',(0.,0.,-1.));
#943=DIRECTION('',(-1.,0.,0.));
#944=DIRECTION('',(0.,0.,1.));
#945=DIRECTION('',(0.,0.,1.));
#946=DIRECTION('',(0.,0.,1.));
#947=DIRECTION('',(0.,-1.,0.));
#948=DIRECTION('',(1.,0.,0.));
#949=DIRECTION('',(0.,-1.,0.));
#950=DIRECTION('',(1.,0.,0.));
#951=DIRECTION('',(0.822183110973265,0.,0.569223095130832));
#952=DIRECTION('',(0.569223095130832,0.,-0.822183110973265));
#953=DIRECTION('',(1.,0.,0.));
#954=DIRECTION('',(0.,0.,-1.));
#955=DIRECTION('',(0.,0.,1.));
#956=DIRECTION('',(0.,-1.,0.));
#957=DIRECTION('',(0.,0.,1.));
#958=DIRECTION('',(0.,-1.,0.));
#959=DIRECTION('',(0.,-1.,0.));
#960=DIRECTION('',(0.,0.,-1.));
#961=DIRECTION('',(0.,-1.,0.));
#962=DIRECTION('',(0.,0.,-1.));
#963=DIRECTION('',(0.,-1.,0.));
#964=DIRECTION('',(0.,0.,-1.));
#965=DIRECTION('',(0.,-1.,0.));
#966=DIRECTION('',(-1.,0.,-1.3010426069826E-16));
#967=DIRECTION('',(-1.3010426069826E-16,0.,1.));
#968=DIRECTION('',(1.3010426069826E-16,0.,-1.));
#969=DIRECTION('',(1.3010426069826E-16,0.,-1.));
#970=DIRECTION('',(0.,-1.,0.));
#971=DIRECTION('',(0.,0.,-1.));
#972=DIRECTION('',(-1.,0.,0.));
#973=DIRECTION('',(0.,0.,1.));
#974=DIRECTION('',(1.,0.,0.));
#975=DIRECTION('',(1.,0.,0.));
#976=DIRECTION('',(0.,0.,1.));
#977=DIRECTION('',(1.,0.,0.));
#978=DIRECTION('',(1.,0.,0.));
#979=DIRECTION('',(1.,0.,0.));
#980=DIRECTION('',(0.,-1.,0.));
#981=DIRECTION('',(0.,0.,-1.));
#982=DIRECTION('',(0.,-1.,0.));
#983=DIRECTION('',(0.,0.,-1.));
#984=DIRECTION('',(0.,-1.,0.));
#985=DIRECTION('',(0.,0.,-1.));
#986=DIRECTION('',(0.,-1.,0.));
#987=DIRECTION('',(1.,0.,0.));
#988=DIRECTION('',(0.,-1.,0.));
#989=DIRECTION('',(1.,0.,0.));
#990=DIRECTION('',(0.,0.,1.));
#991=DIRECTION('',(-1.,0.,0.));
#992=DIRECTION('',(0.,0.,1.));
#993=DIRECTION('',(0.,0.,1.));
#994=DIRECTION('',(1.,0.,0.));
#995=DIRECTION('',(0.,0.,1.));
#996=DIRECTION('',(1.,0.,0.));
#997=DIRECTION('',(0.,0.,1.));
#998=DIRECTION('',(1.,0.,0.));
#999=DIRECTION('',(0.,0.,1.));
#1000=DIRECTION('',(1.,0.,0.));
#1001=DIRECTION('',(0.,0.,-1.));
#1002=DIRECTION('',(-1.,0.,0.));
#1003=DIRECTION('',(0.,0.,-1.));
#1004=DIRECTION('',(1.,0.,0.));
#1005=DIRECTION('',(0.987718524180734,0.,-0.156243774244711));
#1006=DIRECTION('',(-0.156243774244711,0.,-0.987718524180734));
#1007=DIRECTION('',(0.,0.,1.));
#1008=DIRECTION('',(1.,0.,0.));
#1009=DIRECTION('',(0.,0.,1.));
#1010=DIRECTION('',(1.,0.,0.));
#1011=DIRECTION('',(0.,0.,-1.));
#1012=DIRECTION('',(-1.,0.,0.));
#1013=DIRECTION('',(0.,0.,1.));
#1014=DIRECTION('',(1.,0.,0.));
#1015=DIRECTION('',(0.,0.,1.));
#1016=DIRECTION('',(1.,0.,0.));
#1017=DIRECTION('',(0.,0.,1.));
#1018=DIRECTION('',(1.,0.,0.));
#1019=DIRECTION('',(0.,0.,-1.));
#1020=DIRECTION('',(-1.,0.,0.));
#1021=DIRECTION('',(0.,0.,1.));
#1022=DIRECTION('',(1.,0.,0.));
#1023=DIRECTION('',(0.,0.,1.));
#1024=DIRECTION('',(1.,0.,0.));
#1025=DIRECTION('',(0.,0.,1.));
#1026=DIRECTION('',(1.,0.,0.));
#1027=DIRECTION('',(0.,0.,-1.));
#1028=DIRECTION('',(-1.,0.,0.));
#1029=DIRECTION('',(0.,0.,-1.));
#1030=DIRECTION('',(-1.,0.,0.));
#1031=DIRECTION('',(0.,0.,-1.));
#1032=DIRECTION('',(-1.,0.,0.));
#1033=DIRECTION('',(0.,0.,-1.));
#1034=DIRECTION('',(1.,0.,0.));
#1035=DIRECTION('',(0.,0.,-1.));
#1036=DIRECTION('',(-1.,0.,0.));
#1037=DIRECTION('',(-1.,0.,0.));
#1038=DIRECTION('',(0.,1.,0.));
#1039=DIRECTION('',(-1.,0.,0.));
#1040=DIRECTION('',(0.,1.,0.));
#1041=DIRECTION('',(-1.,0.,2.31296463463574E-16));
#1042=DIRECTION('',(2.31296463463574E-16,0.,1.));
#1043=DIRECTION('',(2.31296463463574E-16,0.,1.));
#1044=DIRECTION('',(0.,1.,0.));
#1045=DIRECTION('',(2.31296463463574E-16,0.,1.));
#1046=DIRECTION('',(0.,1.,0.));
#1047=DIRECTION('',(0.,0.,-1.));
#1048=DIRECTION('',(-1.,0.,0.));
#1049=DIRECTION('',(-1.,0.,0.));
#1050=DIRECTION('',(0.,1.,0.));
#1051=DIRECTION('',(-1.,0.,0.));
#1052=DIRECTION('',(0.,1.,0.));
#1053=DIRECTION('',(-1.,0.,0.));
#1054=DIRECTION('',(0.,0.,1.));
#1055=DIRECTION('',(0.,0.,1.));
#1056=DIRECTION('',(0.,1.,0.));
#1057=DIRECTION('',(0.,0.,1.));
#1058=DIRECTION('',(0.,0.,1.));
#1059=DIRECTION('',(1.,0.,0.));
#1060=DIRECTION('',(1.,0.,0.));
#1061=DIRECTION('',(0.,1.,0.));
#1062=DIRECTION('',(1.,0.,0.));
#1063=DIRECTION('',(1.,0.,-1.06752213906265E-16));
#1064=DIRECTION('',(-1.06752213906265E-16,0.,-1.));
#1065=DIRECTION('',(-1.06752213906265E-16,0.,-1.));
#1066=DIRECTION('',(0.,1.,0.));
#1067=DIRECTION('',(-1.06752213906265E-16,0.,-1.));
#1068=DIRECTION('',(0.,0.,-1.));
#1069=DIRECTION('',(-1.,0.,0.));
#1070=DIRECTION('',(-1.,0.,0.));
#1071=DIRECTION('',(0.,1.,0.));
#1072=DIRECTION('',(-1.,0.,0.));
#1073=DIRECTION('',(-1.,0.,2.31296463463574E-16));
#1074=DIRECTION('',(2.31296463463574E-16,0.,1.));
#1075=DIRECTION('',(2.31296463463574E-16,0.,1.));
#1076=DIRECTION('',(0.,1.,0.));
#1077=DIRECTION('',(2.31296463463574E-16,0.,1.));
#1078=DIRECTION('',(0.,1.,0.));
#1079=DIRECTION('',(0.,-1.,0.));
#1080=DIRECTION('',(1.,0.,0.));
#1081=DIRECTION('',(0.,-1.,0.));
#1082=DIRECTION('',(0.,0.,-1.));
#1083=DIRECTION('',(0.,-1.,0.));
#1084=DIRECTION('',(0.,0.,-1.));
#1085=DIRECTION('',(0.,-1.,0.));
#1086=DIRECTION('',(0.,0.,-1.));
#1087=DIRECTION('',(0.,-1.,0.));
#1088=DIRECTION('',(0.,0.,-1.));
#1089=DIRECTION('',(0.,-1.,0.));
#1090=DIRECTION('',(1.,0.,0.));
#1091=DIRECTION('',(0.,-1.,0.));
#1092=DIRECTION('',(0.,0.,-1.));
#1093=DIRECTION('',(0.,-1.,0.));
#1094=DIRECTION('',(0.,0.,-1.));
#1095=DIRECTION('',(0.,-1.,0.));
#1096=DIRECTION('',(0.,0.,-1.));
#1097=DIRECTION('',(0.,-1.,0.));
#1098=DIRECTION('',(0.,0.,-1.));
#1099=DIRECTION('',(0.,-1.,0.));
#1100=DIRECTION('',(0.,0.,-1.));
#1101=DIRECTION('',(0.,1.,0.));
#1102=DIRECTION('',(0.,0.,1.));
#1103=DIRECTION('',(0.,1.,0.));
#1104=DIRECTION('',(0.,0.,1.));
#1105=DIRECTION('',(0.,-1.,0.));
#1106=DIRECTION('',(0.,0.,-1.));
#1107=DIRECTION('',(0.987718524180734,3.92047505570758E-16,-0.156243774244713));
#1108=DIRECTION('',(-0.0310561663196544,0.980046696305263,-0.196326227475256));
#1109=DIRECTION('',(0.,0.,1.));
#1110=DIRECTION('',(1.,0.,0.));
#1111=DIRECTION('',(0.,0.,1.));
#1112=DIRECTION('',(1.,0.,0.));
#1113=DIRECTION('',(1.,0.,0.));
#1114=DIRECTION('',(0.,0.,-1.));
#1115=DIRECTION('',(-1.,0.,0.));
#1116=DIRECTION('',(0.,0.,1.));
#1117=DIRECTION('',(1.,0.,0.));
#1118=DIRECTION('',(0.,0.,-1.));
#1119=DIRECTION('',(0.,0.,-1.));
#1120=DIRECTION('',(0.,0.,-1.));
#1121=DIRECTION('',(-1.,0.,0.));
#1122=DIRECTION('',(0.,1.,0.));
#1123=DIRECTION('',(0.,0.,1.));
#1124=DIRECTION('',(0.,-1.,0.));
#1125=DIRECTION('',(0.,0.,-1.));
#1126=DIRECTION('',(0.,1.,0.));
#1127=DIRECTION('',(0.,0.,1.));
#1128=DIRECTION('',(0.,-1.,0.));
#1129=DIRECTION('',(0.,0.,-1.));
#1130=DIRECTION('',(0.,-1.,0.));
#1131=DIRECTION('',(1.,0.,0.));
#1132=DIRECTION('',(0.,-1.,0.));
#1133=DIRECTION('',(0.,0.,-1.));
#1134=DIRECTION('',(0.,-1.,0.));
#1135=DIRECTION('',(0.,0.,-1.));
#1136=DIRECTION('',(0.,0.,-1.));
#1137=DIRECTION('',(-1.,0.,0.));
#1138=DIRECTION('',(0.,0.,1.));
#1139=DIRECTION('',(1.,0.,0.));
#1140=CARTESIAN_POINT('',(0.,0.,0.));
#1141=CARTESIAN_POINT('',(-6.93889390390723E-18,-0.035,0.36));
#1142=CARTESIAN_POINT('',(-6.93889390390723E-18,0.,0.36));
#1143=CARTESIAN_POINT('',(0.035,0.,0.36));
#1144=CARTESIAN_POINT('',(-0.035,0.,0.36));
#1145=CARTESIAN_POINT('',(-0.035,-0.035,0.36));
#1146=CARTESIAN_POINT('',(-0.035,-0.035,0.36));
#1147=CARTESIAN_POINT('',(-6.93889390390723E-18,-0.035,0.36));
#1148=CARTESIAN_POINT('',(0.035,-0.035,0.36));
#1149=CARTESIAN_POINT('',(0.035,-0.035,0.36));
#1150=CARTESIAN_POINT('',(-0.035,-0.035,0.275));
#1151=CARTESIAN_POINT('',(-0.035,0.,0.275));
#1152=CARTESIAN_POINT('',(-0.035,0.,0.19));
#1153=CARTESIAN_POINT('',(-0.035,-0.035,0.19));
#1154=CARTESIAN_POINT('',(-0.035,-0.035,0.19));
#1155=CARTESIAN_POINT('',(-0.035,-0.035,0.275));
#1156=CARTESIAN_POINT('',(-6.93889390390723E-18,-0.035,0.19));
#1157=CARTESIAN_POINT('',(-6.93889390390723E-18,0.,0.19));
#1158=CARTESIAN_POINT('',(0.035,0.,0.19));
#1159=CARTESIAN_POINT('',(0.035,-0.035,0.19));
#1160=CARTESIAN_POINT('',(0.035,-0.035,0.19));
#1161=CARTESIAN_POINT('',(-6.93889390390723E-18,-0.035,0.19));
#1162=CARTESIAN_POINT('',(-6.93889390390723E-18,-0.035,0.36));
#1163=CARTESIAN_POINT('',(-6.93889390390723E-18,-0.035,0.36));
#1164=CARTESIAN_POINT('',(-6.93889390390723E-18,-0.035,0.3475));
#1165=CARTESIAN_POINT('',(-6.93889390390723E-18,0.,0.36));
#1166=CARTESIAN_POINT('',(-6.93889390390723E-18,0.,0.3475));
#1167=CARTESIAN_POINT('',(-6.93889390390723E-18,-0.035,0.19));
#1168=CARTESIAN_POINT('',(-6.93889390390723E-18,-0.035,0.19));
#1169=CARTESIAN_POINT('',(-6.93889390390723E-18,-0.035,0.1775));
#1170=CARTESIAN_POINT('',(-6.93889390390723E-18,0.,0.19));
#1171=CARTESIAN_POINT('',(-6.93889390390723E-18,0.,0.1775));
#1172=CARTESIAN_POINT('',(0.035,-0.035,0.275));
#1173=CARTESIAN_POINT('',(0.035,0.,0.275));
#1174=CARTESIAN_POINT('',(0.035,-0.035,0.275));
#1175=CARTESIAN_POINT('',(-0.0125,-0.035,0.265));
#1176=CARTESIAN_POINT('',(-0.0125,0.,0.265));
#1177=CARTESIAN_POINT('',(-0.15621479108492,0.,0.0818476119251421));
#1178=CARTESIAN_POINT('',(-0.03,0.02,0.4));
#1179=CARTESIAN_POINT('',(-0.03,0.,0.4));
#1180=CARTESIAN_POINT('',(-0.03,0.,0.36));
#1181=CARTESIAN_POINT('',(-0.03,0.,0.44));
#1182=CARTESIAN_POINT('',(-0.03,0.02,0.44));
#1183=CARTESIAN_POINT('',(-0.03,0.02,0.44));
#1184=CARTESIAN_POINT('',(-0.03,0.02,0.4));
#1185=CARTESIAN_POINT('',(-0.03,0.02,0.36));
#1186=CARTESIAN_POINT('',(-0.03,0.02,0.36));
#1187=CARTESIAN_POINT('',(0.,0.02,0.36));
#1188=CARTESIAN_POINT('',(0.,0.,0.36));
#1189=CARTESIAN_POINT('',(0.03,0.,0.36));
#1190=CARTESIAN_POINT('',(0.,0.02,0.36));
#1191=CARTESIAN_POINT('',(0.03,0.02,0.36));
#1192=CARTESIAN_POINT('',(0.03,0.02,0.36));
#1193=CARTESIAN_POINT('',(0.03,0.02,0.4));
#1194=CARTESIAN_POINT('',(0.03,0.,0.4));
#1195=CARTESIAN_POINT('',(0.03,0.,0.44));
#1196=CARTESIAN_POINT('',(0.03,0.02,0.4));
#1197=CARTESIAN_POINT('',(0.03,0.02,0.44));
#1198=CARTESIAN_POINT('',(0.03,0.02,0.44));
#1199=CARTESIAN_POINT('',(0.,0.02,0.44));
#1200=CARTESIAN_POINT('',(0.,1.22464679914737E-18,0.44));
#1201=CARTESIAN_POINT('',(0.00500000000000022,1.22464679914737E-18,0.44));
#1202=CARTESIAN_POINT('',(0.,0.,0.44));
#1203=CARTESIAN_POINT('',(-0.015,0.,0.44));
#1204=CARTESIAN_POINT('',(0.,9.18485099360515E-19,0.44));
#1205=CARTESIAN_POINT('',(0.015,9.18485099360515E-19,0.44));
#1206=CARTESIAN_POINT('',(0.,0.,0.44));
#1207=CARTESIAN_POINT('',(0.,0.02,0.44));
#1208=CARTESIAN_POINT('',(-6.93889390390723E-18,0.02,0.36));
#1209=CARTESIAN_POINT('',(-6.93889390390723E-18,0.02,0.36));
#1210=CARTESIAN_POINT('',(-6.93889390390723E-18,0.02,0.3475));
#1211=CARTESIAN_POINT('',(-6.93889390390723E-18,0.,0.36));
#1212=CARTESIAN_POINT('',(-6.93889390390723E-18,0.,0.3475));
#1213=CARTESIAN_POINT('',(0.,0.02,0.385));
#1214=CARTESIAN_POINT('',(0.,0.,0.385));
#1215=CARTESIAN_POINT('',(0.015,0.,0.41));
#1216=CARTESIAN_POINT('',(0.015,0.,0.41));
#1217=CARTESIAN_POINT('',(0.,0.,0.41));
#1218=CARTESIAN_POINT('',(-0.015,0.,0.41));
#1219=CARTESIAN_POINT('',(-0.015,0.,0.41));
#1220=CARTESIAN_POINT('',(0.,9.18485099360515E-19,0.41));
#1221=CARTESIAN_POINT('',(0.,9.18485099360515E-19,0.41));
#1222=CARTESIAN_POINT('',(-1.38777878078145E-17,0.0025,0.41));
#1223=CARTESIAN_POINT('',(0.,1.22464679914737E-18,0.424998));
#1224=CARTESIAN_POINT('',(0.,1.22464679914737E-18,0.425));
#1225=CARTESIAN_POINT('',(-0.00500000000000022,1.22464679914737E-18,0.425));
#1226=CARTESIAN_POINT('',(-0.00500000000000022,0.,0.425));
#1227=CARTESIAN_POINT('',(-0.21580753983961,0.,0.343015684900338));
#1228=CARTESIAN_POINT('',(-0.03,0.,0.));
#1229=CARTESIAN_POINT('',(0.,0.,0.));
#1230=CARTESIAN_POINT('',(0.06,0.,0.));
#1231=CARTESIAN_POINT('',(-0.025,0.,0.03));
#1232=CARTESIAN_POINT('',(0.,0.,0.03));
#1233=CARTESIAN_POINT('',(0.05,0.,0.03));
#1234=CARTESIAN_POINT('',(0.,0.,0.015));
#1235=CARTESIAN_POINT('',(0.,0.,0.04));
#1236=CARTESIAN_POINT('',(0.05,0.,0.04));
#1237=CARTESIAN_POINT('',(-0.055,0.,0.04));
#1238=CARTESIAN_POINT('',(0.,0.,0.04));
#1239=CARTESIAN_POINT('',(0.06,0.,0.04));
#1240=CARTESIAN_POINT('',(0.,0.,0.015));
#1241=CARTESIAN_POINT('',(0.,0.,0.));
#1242=CARTESIAN_POINT('',(0.,1.22464679914737E-18,0.455002));
#1243=CARTESIAN_POINT('',(0.,1.22464679914737E-18,0.425));
#1244=CARTESIAN_POINT('',(-0.00450000000000023,1.22464679914737E-18,0.425));
#1245=CARTESIAN_POINT('',(0.,1.22464679914737E-18,0.455));
#1246=CARTESIAN_POINT('',(-0.00450000000000023,1.22464679914737E-18,0.455));
#1247=CARTESIAN_POINT('',(-0.00500000000000022,0.,0.425));
#1248=CARTESIAN_POINT('',(-0.015,-0.005,0.455));
#1249=CARTESIAN_POINT('',(-0.015,-0.005,0.455));
#1250=CARTESIAN_POINT('',(0.017,-0.005,0.455));
#1251=CARTESIAN_POINT('',(-0.017,-0.005,0.455));
#1252=CARTESIAN_POINT('',(-0.017,-0.005,0.455));
#1253=CARTESIAN_POINT('',(-0.017,0.005,0.455));
#1254=CARTESIAN_POINT('',(-0.015,0.005,0.455));
#1255=CARTESIAN_POINT('',(0.017,0.005,0.455));
#1256=CARTESIAN_POINT('',(0.017,-0.005,0.455));
#1257=CARTESIAN_POINT('',(0.025,-0.005,0.4925));
#1258=CARTESIAN_POINT('',(0.025,0.005,0.4925));
#1259=CARTESIAN_POINT('',(0.025,0.005,0.463));
#1260=CARTESIAN_POINT('',(0.025,0.005,0.522));
#1261=CARTESIAN_POINT('',(0.025,-0.005,0.522));
#1262=CARTESIAN_POINT('',(0.025,-0.005,0.522));
#1263=CARTESIAN_POINT('',(0.025,-0.005,0.4925));
#1264=CARTESIAN_POINT('',(0.025,-0.005,0.463));
#1265=CARTESIAN_POINT('',(0.025,0.005,0.463));
#1266=CARTESIAN_POINT('',(0.02,-0.005,0.53));
#1267=CARTESIAN_POINT('',(0.02,-0.005,0.53));
#1268=CARTESIAN_POINT('',(0.017,-0.005,0.53));
#1269=CARTESIAN_POINT('',(0.0149999999999998,-0.005,0.53));
#1270=CARTESIAN_POINT('',(0.017,-0.005,0.53));
#1271=CARTESIAN_POINT('',(0.017,0.005,0.53));
#1272=CARTESIAN_POINT('',(0.02,0.005,0.53));
#1273=CARTESIAN_POINT('',(0.0149999999999998,0.005,0.53));
#1274=CARTESIAN_POINT('',(0.0149999999999998,-0.005,0.53));
#1275=CARTESIAN_POINT('',(0.0149999999999998,-0.005,0.4975));
#1276=CARTESIAN_POINT('',(0.0149999999999998,0.005,0.4975));
#1277=CARTESIAN_POINT('',(0.0149999999999998,0.005,0.465));
#1278=CARTESIAN_POINT('',(0.0149999999999998,-0.005,0.465));
#1279=CARTESIAN_POINT('',(0.0149999999999998,-0.005,0.465));
#1280=CARTESIAN_POINT('',(0.0149999999999998,-0.005,0.4975));
#1281=CARTESIAN_POINT('',(-1.61329283265843E-16,-0.005,0.465));
#1282=CARTESIAN_POINT('',(-1.61329283265843E-16,0.005,0.465));
#1283=CARTESIAN_POINT('',(-0.015,0.005,0.465));
#1284=CARTESIAN_POINT('',(-0.015,-0.005,0.465));
#1285=CARTESIAN_POINT('',(-0.015,-0.005,0.465));
#1286=CARTESIAN_POINT('',(-1.61329283265843E-16,-0.005,0.465));
#1287=CARTESIAN_POINT('',(-0.015,-0.005,0.4975));
#1288=CARTESIAN_POINT('',(-0.015,0.005,0.4975));
#1289=CARTESIAN_POINT('',(-0.015,0.005,0.53));
#1290=CARTESIAN_POINT('',(-0.015,-0.005,0.53));
#1291=CARTESIAN_POINT('',(-0.015,-0.005,0.53));
#1292=CARTESIAN_POINT('',(-0.015,-0.005,0.4975));
#1293=CARTESIAN_POINT('',(-0.02,-0.005,0.53));
#1294=CARTESIAN_POINT('',(-0.02,0.005,0.53));
#1295=CARTESIAN_POINT('',(-0.017,0.005,0.53));
#1296=CARTESIAN_POINT('',(-0.017,-0.005,0.53));
#1297=CARTESIAN_POINT('',(-0.017,-0.005,0.53));
#1298=CARTESIAN_POINT('',(-0.02,-0.005,0.53));
#1299=CARTESIAN_POINT('',(-0.025,-0.005,0.4925));
#1300=CARTESIAN_POINT('',(-0.025,-0.005,0.4925));
#1301=CARTESIAN_POINT('',(-0.025,-0.005,0.463));
#1302=CARTESIAN_POINT('',(-0.025,-0.005,0.522));
#1303=CARTESIAN_POINT('',(-0.025,0.005,0.522));
#1304=CARTESIAN_POINT('',(-0.025,0.005,0.522));
#1305=CARTESIAN_POINT('',(-0.025,0.005,0.4925));
#1306=CARTESIAN_POINT('',(-0.025,0.005,0.463));
#1307=CARTESIAN_POINT('',(-0.025,-0.005,0.463));
#1308=CARTESIAN_POINT('',(-0.0125,-0.005,0.265));
#1309=CARTESIAN_POINT('',(-0.017,-0.005,0.522));
#1310=CARTESIAN_POINT('',(-0.017,-0.005,0.463));
#1311=CARTESIAN_POINT('',(0.017,-0.005,0.463));
#1312=CARTESIAN_POINT('',(0.017,-0.005,0.522));
#1313=CARTESIAN_POINT('',(-0.0125,0.005,0.265));
#1314=CARTESIAN_POINT('',(-0.017,0.005,0.522));
#1315=CARTESIAN_POINT('',(0.017,0.005,0.522));
#1316=CARTESIAN_POINT('',(0.017,0.005,0.463));
#1317=CARTESIAN_POINT('',(-0.017,0.005,0.463));
#1318=CARTESIAN_POINT('',(-0.017,-0.005,0.522));
#1319=CARTESIAN_POINT('',(-0.017,-0.005,0.463));
#1320=CARTESIAN_POINT('',(0.017,-0.005,0.522));
#1321=CARTESIAN_POINT('',(0.017,-0.005,0.463));
#1322=CARTESIAN_POINT('',(-0.215807539839612,9.81226958190475E-19,0.343015684900339));
#1323=CARTESIAN_POINT('',(0.,0.,0.21));
#1324=CARTESIAN_POINT('',(0.,0.,0.21));
#1325=CARTESIAN_POINT('',(0.05,0.,0.21));
#1326=CARTESIAN_POINT('',(-0.05,0.,0.21));
#1327=CARTESIAN_POINT('',(0.,0.,0.21));
#1328=CARTESIAN_POINT('',(0.,0.,0.210002));
#1329=CARTESIAN_POINT('',(0.,0.,0.03));
#1330=CARTESIAN_POINT('',(0.05,0.,0.03));
#1331=CARTESIAN_POINT('',(0.05,0.,0.210002));
#1332=CARTESIAN_POINT('',(0.05,0.,0.124377281052281));
#1333=CARTESIAN_POINT('',(0.05,0.,0.124377281052281));
#1334=CARTESIAN_POINT('',(0.05,-0.0016590093667489,0.124377281052281));
#1335=CARTESIAN_POINT('',(0.0498359628534742,-0.00495623636961974,0.124330212188026));
#1336=CARTESIAN_POINT('',(0.0490996208931484,-0.00987208693048155,0.124121316620123));
#1337=CARTESIAN_POINT('',(0.0478852478726585,-0.0146621450145701,0.123784805908049));
#1338=CARTESIAN_POINT('',(0.0456780957813002,-0.0207916531909748,0.123193786417397));
#1339=CARTESIAN_POINT('',(0.0417564608311043,-0.0280790411283432,0.122209131898146));
#1340=CARTESIAN_POINT('',(0.0366054905601339,-0.0343332165493902,0.121091224220726));
#1341=CARTESIAN_POINT('',(0.0317231713407626,-0.0387519924620025,0.120191066035233));
#1342=CARTESIAN_POINT('',(0.0278089907890317,-0.0416469662998788,0.119556156915257));
#1343=CARTESIAN_POINT('',(0.0236373697756227,-0.0441508330749885,0.118974551199349));
#1344=CARTESIAN_POINT('',(0.0191719154269525,-0.046266525121465,0.118459671139787));
#1345=CARTESIAN_POINT('',(0.0145346428934834,-0.0479242853186766,0.118041469215683));
#1346=CARTESIAN_POINT('',(0.00980300986023522,-0.0491099106962309,0.117734617553241));
#1347=CARTESIAN_POINT('',(0.00496723823015364,-0.0498344327550839,0.117543944545875));
#1348=CARTESIAN_POINT('',(-1.02364060448467E-5,-0.0500823936039456,0.117478128386364));
#1349=CARTESIAN_POINT('',(-0.00493324344313714,-0.0498359927486101,0.117543541929997));
#1350=CARTESIAN_POINT('',(-0.0113974569798791,-0.0488776855280926,0.117795676871677));
#1351=CARTESIAN_POINT('',(-0.0177635994767664,-0.0469386824783645,0.118296118429269));
#1352=CARTESIAN_POINT('',(-0.023640164427822,-0.0441478985689076,0.118975207842103));
#1353=CARTESIAN_POINT('',(-0.0278461568861074,-0.041625802283994,0.119561180208325));
#1354=CARTESIAN_POINT('',(-0.0318071587807928,-0.0386822037637886,0.120205763877326));
#1355=CARTESIAN_POINT('',(-0.0354078045417938,-0.0354133278369728,0.12087090221734));
#1356=CARTESIAN_POINT('',(-0.0386812643617402,-0.0318089115665641,0.121541914343132));
#1357=CARTESIAN_POINT('',(-0.0416282419588001,-0.027841946144983,0.122202052889256));
#1358=CARTESIAN_POINT('',(-0.0441386349791138,-0.023655918607838,0.122807175128486));
#1359=CARTESIAN_POINT('',(-0.0469262091466519,-0.0177951226935596,0.123519628527354));
#1360=CARTESIAN_POINT('',(-0.0493525077435162,-0.00984848283449361,0.124189757219033));
#1361=CARTESIAN_POINT('',(-0.05,-0.00331872052211742,0.124377281052281));
#1362=CARTESIAN_POINT('',(-0.05,-1.82414401856133E-18,0.124377281052281));
#1363=CARTESIAN_POINT('',(-0.05,0.,0.124377281052281));
#1364=CARTESIAN_POINT('',(-0.05,0.,0.210002));
#1365=CARTESIAN_POINT('',(-0.025,0.,0.03));
#1366=CARTESIAN_POINT('',(-6.93889390390723E-18,-0.347977311683152,0.19));
#1367=CARTESIAN_POINT('',(-6.93889390390723E-18,0.,0.19));
#1368=CARTESIAN_POINT('',(-6.93889390390723E-18,0.,0.1785));
#1369=CARTESIAN_POINT('',(-0.00596944931963839,-0.0496962562997962,0.179822732472281));
#1370=CARTESIAN_POINT('',(-0.00159618825531392,-0.0500456491914788,0.178304706874892));
#1371=CARTESIAN_POINT('',(0.00302044846766159,-0.0499759135107666,0.17859265151786));
#1372=CARTESIAN_POINT('',(0.00714900412256151,-0.0495319491659886,0.180616212783963));
#1373=CARTESIAN_POINT('',(0.0101838129523117,-0.0489699116206656,0.184044985866912));
#1374=CARTESIAN_POINT('',(0.0116913213310683,-0.0486134893250548,0.188393635564654));
#1375=CARTESIAN_POINT('',(0.0114115376871178,-0.0486836856726896,0.193009055191916));
#1376=CARTESIAN_POINT('',(0.00938609986439959,-0.0491376051576165,0.197147542424093));
#1377=CARTESIAN_POINT('',(0.00595392581424391,-0.0496979315459534,0.200184826492927));
#1378=CARTESIAN_POINT('',(0.00160328868290568,-0.0500448379828515,0.201691718089936));
#1379=CARTESIAN_POINT('',(-0.00300823685206345,-0.0499767010629746,0.201410659537858));
#1380=CARTESIAN_POINT('',(-0.00713937218759276,-0.04953346449475,0.199391419533667));
#1381=CARTESIAN_POINT('',(-0.0101811867364866,-0.0489705667640354,0.19596176668289));
#1382=CARTESIAN_POINT('',(-0.0116923840538538,-0.0486132175818257,0.191604345538319));
#1383=CARTESIAN_POINT('',(-0.0114103583751564,-0.0486840132754668,0.186989018529728));
#1384=CARTESIAN_POINT('',(-0.00938910503394081,-0.0491367146237397,0.182859716826244));
#1385=CARTESIAN_POINT('',(-0.00596944931963839,-0.0496962562997962,0.179822732472281));
#1386=CARTESIAN_POINT('',(-0.00159618825531392,-0.0500456491914788,0.178304706874892));
#1387=CARTESIAN_POINT('',(0.00302044846766159,-0.0499759135107666,0.17859265151786));
#1388=CARTESIAN_POINT('',(-0.00155562564553874,-0.0499757944294129,0.178605701914952));
#1389=CARTESIAN_POINT('',(0.,-0.347977311683152,0.21));
#1390=CARTESIAN_POINT('',(0.,0.,0.21));
#1391=CARTESIAN_POINT('',(-0.0293243243243244,0.,0.138262046287047));
#1392=CARTESIAN_POINT('',(0.0293243243243244,0.,0.138262046287047));
#1393=CARTESIAN_POINT('',(-0.0293243243243244,0.,0.138262046287047));
#1394=CARTESIAN_POINT('',(-0.0293243243243244,-0.00214038063422283,0.138262046287047));
#1395=CARTESIAN_POINT('',(-0.0290017048570446,-0.00636903740120566,0.138128739938252));
#1396=CARTESIAN_POINT('',(-0.027530819499434,-0.0126152360729184,0.137545466263881));
#1397=CARTESIAN_POINT('',(-0.0251372645714329,-0.0184193393324713,0.136668804607919));
#1398=CARTESIAN_POINT('',(-0.0217517436236826,-0.0237954154464404,0.135579945443471));
#1399=CARTESIAN_POINT('',(-0.0182065775074137,-0.0276125704743166,0.134637473409469));
#1400=CARTESIAN_POINT('',(-0.014878787350727,-0.0302309774562852,0.133926434247991));
#1401=CARTESIAN_POINT('',(-0.0122206919481289,-0.0318836216126922,0.133452775102041));
#1402=CARTESIAN_POINT('',(-0.00936593482799117,-0.033237134312778,0.133048604261118));
#1403=CARTESIAN_POINT('',(-0.00530100365069067,-0.0345829833136282,0.132633624163749));
#1404=CARTESIAN_POINT('',(-0.00112856543888281,-0.0351372901523724,0.132456187919466));
#1405=CARTESIAN_POINT('',(0.00317699762006696,-0.0348638933700856,0.132543297764065));
#1406=CARTESIAN_POINT('',(0.00627392579697266,-0.0342565453621444,0.132734309908782));
#1407=CARTESIAN_POINT('',(0.00928790764525099,-0.0332689730190593,0.133038933675776));
#1408=CARTESIAN_POINT('',(0.0131710541307958,-0.031438734269915,0.133585789877829));
#1409=CARTESIAN_POINT('',(0.0174221200143184,-0.0284404589341473,0.134432150449453));
#1410=CARTESIAN_POINT('',(0.0217560798231447,-0.0237916926585229,0.135580414370218));
#1411=CARTESIAN_POINT('',(0.0245373466524922,-0.0193836213474759,0.13647526294295));
#1412=CARTESIAN_POINT('',(0.0263254451321148,-0.0155343572818424,0.13710429052546));
#1413=CARTESIAN_POINT('',(0.0277741257934188,-0.011582949608153,0.137641769287108));
#1414=CARTESIAN_POINT('',(0.0289956735918764,-0.00640879787111905,0.138126384566616));
#1415=CARTESIAN_POINT('',(0.0293243243243243,-0.00214105206374246,0.138262046287047));
#1416=CARTESIAN_POINT('',(0.0293243243243243,1.44254824311271E-19,0.138262046287047));
#1417=CARTESIAN_POINT('',(0.,0.,0.21));
#1418=CARTESIAN_POINT('',(-0.035,-1.04196240130064E-18,0.124377281052281));
#1419=CARTESIAN_POINT('',(0.035,4.08955994582943E-22,0.124377281052281));
#1420=CARTESIAN_POINT('',(0.,0.,0.210002));
#1421=CARTESIAN_POINT('',(0.0293243243243243,-4.61512514854069E-18,0.138262046287047));
#1422=CARTESIAN_POINT('',(0.05,-7.79698161741036E-18,0.146713642516904));
#1423=CARTESIAN_POINT('',(0.05,-6.5930359264867E-18,0.124377281052281));
#1424=CARTESIAN_POINT('',(0.0293243243243133,-0.00115100343266669,0.138262046287042));
#1425=CARTESIAN_POINT('',(0.0499999999999463,-0.00194455238296003,0.14671364251682));
#1426=CARTESIAN_POINT('',(0.05,-0.00164429061809527,0.124377281052297));
#1427=CARTESIAN_POINT('',(0.0292299637918519,-0.00344566783704613,0.138223366310648));
#1428=CARTESIAN_POINT('',(0.0497806537993926,-0.00580980571400161,0.146591962006452));
#1429=CARTESIAN_POINT('',(0.0498391087695083,-0.00492238262435161,0.124331114628828));
#1430=CARTESIAN_POINT('',(0.0287992365911321,-0.00689544255245202,0.138048776021792));
#1431=CARTESIAN_POINT('',(0.0487923272575595,-0.0115438639501046,0.146049514062196));
#1432=CARTESIAN_POINT('',(0.0491046891185225,-0.0098506322177886,0.124122732671174));
#1433=CARTESIAN_POINT('',(0.0280845740519605,-0.0102625004647956,0.1377658422815));
#1434=CARTESIAN_POINT('',(0.0471957888918136,-0.0169903968933946,0.145192792533471));
#1435=CARTESIAN_POINT('',(0.0478861400885956,-0.0146607149497081,0.12378503756179));
#1436=CARTESIAN_POINT('',(0.0267884822836393,-0.0145571304014498,0.13727004871263));
#1437=CARTESIAN_POINT('',(0.0444194391420869,-0.0236471607867224,0.14375165947643));
#1438=CARTESIAN_POINT('',(0.0456762140320121,-0.0207959005734998,0.123193283947333));
#1439=CARTESIAN_POINT('',(0.0244909712988798,-0.0196506003162227,0.136446091485693));
#1440=CARTESIAN_POINT('',(0.039812100014467,-0.03101395806647,0.141507873336357));
#1441=CARTESIAN_POINT('',(0.0417587989888733,-0.0280722861660324,0.122209851128085));
#1442=CARTESIAN_POINT('',(0.0214834322155215,-0.0240127856629705,0.135513372551719));
#1443=CARTESIAN_POINT('',(0.0342207518729807,-0.0368719654435901,0.139154252382534));
#1444=CARTESIAN_POINT('',(0.0366307369573408,-0.0343039795185293,0.121096605948826));
#1445=CARTESIAN_POINT('',(0.0186340441338232,-0.0270976957596278,0.134761914722631));
#1446=CARTESIAN_POINT('',(0.0292392074531877,-0.0407816851831107,0.137373703161567));
#1447=CARTESIAN_POINT('',(0.0317723333157353,-0.0387109939423254,0.120199704668946));
#1448=CARTESIAN_POINT('',(0.0163473040068894,-0.0291224802957457,0.134230933665003));
#1449=CARTESIAN_POINT('',(0.0254077064799483,-0.0432440046524747,0.136170367552085));
#1450=CARTESIAN_POINT('',(0.0278732833297193,-0.0416035432796367,0.119565953084036));
#1451=CARTESIAN_POINT('',(0.0139072871651603,-0.0308770860388632,0.133743555360639));
#1452=CARTESIAN_POINT('',(0.0214387693067282,-0.0453185861156005,0.135100520359461));
#1453=CARTESIAN_POINT('',(0.0237128859498124,-0.0441101229126617,0.118984243494956));
#1454=CARTESIAN_POINT('',(0.0112909103414358,-0.0323634855171592,0.133310914838573));
#1455=CARTESIAN_POINT('',(0.0172859235238406,-0.0470360665013412,0.134175981411599));
#1456=CARTESIAN_POINT('',(0.0192517826098214,-0.0462335507387989,0.118467866097652));
#1457=CARTESIAN_POINT('',(0.0085667702570626,-0.0335319393377375,0.132958286662712));
#1458=CARTESIAN_POINT('',(0.0130448515010866,-0.0483621484964575,0.133438490700142));
#1459=CARTESIAN_POINT('',(0.014606935461351,-0.0479027704824822,0.118046987307108));
#1460=CARTESIAN_POINT('',(0.00578432075760856,-0.0343689541188928,0.132699074463939));
#1461=CARTESIAN_POINT('',(0.00877430728836415,-0.049299679010929,0.132905008669242));
#1462=CARTESIAN_POINT('',(0.00986266672956299,-0.0490985058841326,0.117737605005347));
#1463=CARTESIAN_POINT('',(0.0029366697461085,-0.0348819224775048,0.132537511399975));
#1464=CARTESIAN_POINT('',(0.00444443018623717,-0.0498693451771364,0.132576022529478));
#1465=CARTESIAN_POINT('',(0.00500722491271956,-0.0498313178250069,0.117544771670937));
#1466=CARTESIAN_POINT('',(-4.64810984893791E-7,-0.0350583879829228,0.13248144867881));
#1467=CARTESIAN_POINT('',(-7.21375363642413E-7,-0.0500644822706375,0.132462475474917));
#1468=CARTESIAN_POINT('',(-7.92534859035501E-7,-0.0500834114041755,0.117477858100515));
#1469=CARTESIAN_POINT('',(-0.00290353219155268,-0.0348845222724909,0.132536694936756));
#1470=CARTESIAN_POINT('',(-0.00439407834599812,-0.0498722321712297,0.132574362791788));
#1471=CARTESIAN_POINT('',(-0.00495072309158751,-0.0498350318178442,0.117543797182579));
#1472=CARTESIAN_POINT('',(-0.00671148326015469,-0.0342080503164684,0.132749720985919));
#1473=CARTESIAN_POINT('',(-0.0101949768349047,-0.0491196178463044,0.133008920452009));
#1474=CARTESIAN_POINT('',(-0.011443542885978,-0.0488686433092406,0.117798054079968));
#1475=CARTESIAN_POINT('',(-0.0104560215433346,-0.0328401646317333,0.133172144031166));
#1476=CARTESIAN_POINT('',(-0.0159882329516257,-0.0475755821109678,0.133885497736016));
#1477=CARTESIAN_POINT('',(-0.0178282394978517,-0.0469145209024761,0.118302236424295));
#1478=CARTESIAN_POINT('',(-0.0138999015811344,-0.0308808444346277,0.133742450015758));
#1479=CARTESIAN_POINT('',(-0.0214267914768448,-0.04532300121244,0.135098117423215));
#1480=CARTESIAN_POINT('',(-0.0237002930185241,-0.0441154920494682,0.118982924212356));
#1481=CARTESIAN_POINT('',(-0.0163613543590727,-0.029113807231695,0.134233476844184));
#1482=CARTESIAN_POINT('',(-0.0254311005410628,-0.0432334996327668,0.13617607712069));
#1483=CARTESIAN_POINT('',(-0.0278972401514143,-0.0415911531881357,0.119568988491445));
#1484=CARTESIAN_POINT('',(-0.0186754076804835,-0.0270564711019529,0.134772284521741));
#1485=CARTESIAN_POINT('',(-0.0293096948403978,-0.0407306992846055,0.137397623831043));
#1486=CARTESIAN_POINT('',(-0.0318428610220226,-0.0386521015742184,0.120212081525949));
#1487=CARTESIAN_POINT('',(-0.0207782033567892,-0.0247744303361244,0.135327688526558));
#1488=CARTESIAN_POINT('',(-0.0329595796299569,-0.0378596361848533,0.138704213316758));
#1489=CARTESIAN_POINT('',(-0.0354282730046636,-0.0353920433373206,0.120874983080086));
#1490=CARTESIAN_POINT('',(-0.0226902036432747,-0.0222595909365277,0.135887808557691));
#1491=CARTESIAN_POINT('',(-0.0364117964293872,-0.0345719000303033,0.140076962238508));
#1492=CARTESIAN_POINT('',(-0.0386883656590399,-0.0317994156236111,0.121543513439825));
#1493=CARTESIAN_POINT('',(-0.0244126702662406,-0.019491730715019,0.136439012755449));
#1494=CARTESIAN_POINT('',(-0.0396598344865335,-0.0307954371011246,0.141489073116254));
#1495=CARTESIAN_POINT('',(-0.0416252903157094,-0.0278453295928843,0.122201402321019));
#1496=CARTESIAN_POINT('',(-0.0258826849493498,-0.0165684230941041,0.136945144095555));
#1497=CARTESIAN_POINT('',(-0.0425613892592996,-0.0266216925112058,0.142846556070014));
#1498=CARTESIAN_POINT('',(-0.0441317669643303,-0.0236691758487202,0.122805494565662));
#1499=CARTESIAN_POINT('',(-0.0271087111855332,-0.0134917112307093,0.137392637656768));
#1500=CARTESIAN_POINT('',(-0.0450933269198783,-0.0220251415843056,0.144101732676184));
#1501=CARTESIAN_POINT('',(-0.0462222264453748,-0.0192738731867275,0.123339599783885));
#1502=CARTESIAN_POINT('',(-0.0280909281975197,-0.0102430842642636,0.137768236252926));
#1503=CARTESIAN_POINT('',(-0.0472096845105567,-0.0169595571338469,0.145199894788736));
#1504=CARTESIAN_POINT('',(-0.0478969743460177,-0.0146329775203765,0.123787894882522));
#1505=CARTESIAN_POINT('',(-0.029040276079869,-0.00574026427218535,0.138144440899783));
#1506=CARTESIAN_POINT('',(-0.0493412005650843,-0.00963983955887972,0.146344749231754));
#1507=CARTESIAN_POINT('',(-0.0495156781084458,-0.00820037753169336,0.124236913332014));
#1508=CARTESIAN_POINT('',(-0.0293243243240992,-0.00231796847903994,0.138262046286955));
#1509=CARTESIAN_POINT('',(-0.049999999999537,-0.00391607097042735,0.14671364251653));
#1510=CARTESIAN_POINT('',(-0.05,-0.00331138354148563,0.124377281052105));
#1511=CARTESIAN_POINT('',(-0.0293243243243243,-5.02127901526035E-17,0.138262046287047));
#1512=CARTESIAN_POINT('',(-0.05,-8.4831546096324E-17,0.146713642516904));
#1513=CARTESIAN_POINT('',(-0.05,-7.17325573608622E-17,0.124377281052281));
#1514=CARTESIAN_POINT('',(0.,0.,0.));
#1515=MECHANICAL_DESIGN_GEOMETRIC_PRESENTATION_REPRESENTATION('',(#763,
#764,#765,#766,#767),#1516);
#1516=(
GEOMETRIC_REPRESENTATION_CONTEXT(3)
GLOBAL_UNCERTAINTY_ASSIGNED_CONTEXT((#1522))
GLOBAL_UNIT_ASSIGNED_CONTEXT((#1530,#1529,#1528))
REPRESENTATION_CONTEXT('Assembly 1','TOP_LEVEL_ASSEMBLY_PART')
);
#1517=(
GEOMETRIC_REPRESENTATION_CONTEXT(3)
GLOBAL_UNCERTAINTY_ASSIGNED_CONTEXT((#1523))
GLOBAL_UNIT_ASSIGNED_CONTEXT((#1530,#1529,#1528))
REPRESENTATION_CONTEXT('Part 3','COMPONENT_PART')
);
#1518=(
GEOMETRIC_REPRESENTATION_CONTEXT(3)
GLOBAL_UNCERTAINTY_ASSIGNED_CONTEXT((#1524))
GLOBAL_UNIT_ASSIGNED_CONTEXT((#1530,#1529,#1528))
REPRESENTATION_CONTEXT('Part 4','COMPONENT_PART')
);
#1519=(
GEOMETRIC_REPRESENTATION_CONTEXT(3)
GLOBAL_UNCERTAINTY_ASSIGNED_CONTEXT((#1525))
GLOBAL_UNIT_ASSIGNED_CONTEXT((#1530,#1529,#1528))
REPRESENTATION_CONTEXT('Part 1','COMPONENT_PART')
);
#1520=(
GEOMETRIC_REPRESENTATION_CONTEXT(3)
GLOBAL_UNCERTAINTY_ASSIGNED_CONTEXT((#1526))
GLOBAL_UNIT_ASSIGNED_CONTEXT((#1530,#1529,#1528))
REPRESENTATION_CONTEXT('Part 5','COMPONENT_PART')
);
#1521=(
GEOMETRIC_REPRESENTATION_CONTEXT(3)
GLOBAL_UNCERTAINTY_ASSIGNED_CONTEXT((#1527))
GLOBAL_UNIT_ASSIGNED_CONTEXT((#1530,#1529,#1528))
REPRESENTATION_CONTEXT('Part 2','COMPONENT_PART')
);
#1522=UNCERTAINTY_MEASURE_WITH_UNIT(LENGTH_MEASURE(1.E-8),#1530,
'DISTANCE_ACCURACY_VALUE','Maximum Tolerance applied to model');
#1523=UNCERTAINTY_MEASURE_WITH_UNIT(LENGTH_MEASURE(1.E-8),#1530,
'DISTANCE_ACCURACY_VALUE','Maximum Tolerance applied to model');
#1524=UNCERTAINTY_MEASURE_WITH_UNIT(LENGTH_MEASURE(1.E-8),#1530,
'DISTANCE_ACCURACY_VALUE','Maximum Tolerance applied to model');
#1525=UNCERTAINTY_MEASURE_WITH_UNIT(LENGTH_MEASURE(1.E-8),#1530,
'DISTANCE_ACCURACY_VALUE','Maximum Tolerance applied to model');
#1526=UNCERTAINTY_MEASURE_WITH_UNIT(LENGTH_MEASURE(1.E-8),#1530,
'DISTANCE_ACCURACY_VALUE','Maximum Tolerance applied to model');
#1527=UNCERTAINTY_MEASURE_WITH_UNIT(LENGTH_MEASURE(2.E-5),#1530,
'DISTANCE_ACCURACY_VALUE','Maximum Tolerance applied to model');
#1528=(
NAMED_UNIT(*)
SI_UNIT($,.STERADIAN.)
SOLID_ANGLE_UNIT()
);
#1529=(
NAMED_UNIT(*)
PLANE_ANGLE_UNIT()
SI_UNIT($,.RADIAN.)
);
#1530=(
LENGTH_UNIT()
NAMED_UNIT(*)
SI_UNIT($,.METRE.)
);
#1531=PRODUCT_DEFINITION_SHAPE('','',#1542);
#1532=PRODUCT_DEFINITION_SHAPE('','',#1543);
#1533=PRODUCT_DEFINITION_SHAPE(' ','NAUO PRDDFN',#19);
#1534=PRODUCT_DEFINITION_SHAPE('','',#1544);
#1535=PRODUCT_DEFINITION_SHAPE(' ','NAUO PRDDFN',#20);
#1536=PRODUCT_DEFINITION_SHAPE('','',#1545);
#1537=PRODUCT_DEFINITION_SHAPE(' ','NAUO PRDDFN',#21);
#1538=PRODUCT_DEFINITION_SHAPE('','',#1546);
#1539=PRODUCT_DEFINITION_SHAPE(' ','NAUO PRDDFN',#22);
#1540=PRODUCT_DEFINITION_SHAPE('','',#1547);
#1541=PRODUCT_DEFINITION_SHAPE(' ','NAUO PRDDFN',#23);
#1542=PRODUCT_DEFINITION('','',#1554,#1548);
#1543=PRODUCT_DEFINITION('','',#1555,#1549);
#1544=PRODUCT_DEFINITION('','',#1556,#1550);
#1545=PRODUCT_DEFINITION('','',#1557,#1551);
#1546=PRODUCT_DEFINITION('','',#1558,#1552);
#1547=PRODUCT_DEFINITION('','',#1559,#1553);
#1548=PRODUCT_DEFINITION_CONTEXT('',#1585,'design');
#1549=PRODUCT_DEFINITION_CONTEXT('',#1585,'design');
#1550=PRODUCT_DEFINITION_CONTEXT('',#1585,'design');
#1551=PRODUCT_DEFINITION_CONTEXT('',#1585,'design');
#1552=PRODUCT_DEFINITION_CONTEXT('',#1585,'design');
#1553=PRODUCT_DEFINITION_CONTEXT('',#1585,'design');
#1554=PRODUCT_DEFINITION_FORMATION_WITH_SPECIFIED_SOURCE('','',#1566,
 .NOT_KNOWN.);
#1555=PRODUCT_DEFINITION_FORMATION_WITH_SPECIFIED_SOURCE('','',#1567,
 .NOT_KNOWN.);
#1556=PRODUCT_DEFINITION_FORMATION_WITH_SPECIFIED_SOURCE('','',#1568,
 .NOT_KNOWN.);
#1557=PRODUCT_DEFINITION_FORMATION_WITH_SPECIFIED_SOURCE('','',#1569,
 .NOT_KNOWN.);
#1558=PRODUCT_DEFINITION_FORMATION_WITH_SPECIFIED_SOURCE('','',#1570,
 .NOT_KNOWN.);
#1559=PRODUCT_DEFINITION_FORMATION_WITH_SPECIFIED_SOURCE('','',#1571,
 .NOT_KNOWN.);
#1560=PRODUCT_RELATED_PRODUCT_CATEGORY('','',(#1566));
#1561=PRODUCT_RELATED_PRODUCT_CATEGORY('','',(#1567));
#1562=PRODUCT_RELATED_PRODUCT_CATEGORY('','',(#1568));
#1563=PRODUCT_RELATED_PRODUCT_CATEGORY('','',(#1569));
#1564=PRODUCT_RELATED_PRODUCT_CATEGORY('','',(#1570));
#1565=PRODUCT_RELATED_PRODUCT_CATEGORY('','',(#1571));
#1566=PRODUCT('Assembly 1','Assembly 1','Assembly 1',(#1578));
#1567=PRODUCT('Part 3','Part 3','Part 3',(#1579));
#1568=PRODUCT('Part 4','Part 4','Part 4',(#1580));
#1569=PRODUCT('Part 1','Part 1','Part 1',(#1581));
#1570=PRODUCT('Part 5','Part 5','Part 5',(#1582));
#1571=PRODUCT('Part 2','Part 2','Part 2',(#1583));
#1572=PRODUCT_CATEGORY('','');
#1573=PRODUCT_CATEGORY('','');
#1574=PRODUCT_CATEGORY('','');
#1575=PRODUCT_CATEGORY('','');
#1576=PRODUCT_CATEGORY('','');
#1577=PRODUCT_CATEGORY('','');
#1578=PRODUCT_CONTEXT('',#1585,'mechanical');
#1579=PRODUCT_CONTEXT('',#1585,'mechanical');
#1580=PRODUCT_CONTEXT('',#1585,'mechanical');
#1581=PRODUCT_CONTEXT('',#1585,'mechanical');
#1582=PRODUCT_CONTEXT('',#1585,'mechanical');
#1583=PRODUCT_CONTEXT('',#1585,'mechanical');
#1584=APPLICATION_PROTOCOL_DEFINITION('international standard',
'ap242_managed_model_based_3d_engineering',2020,#1585);
#1585=APPLICATION_CONTEXT('managed model based 3d engineering');
ENDSEC;
END-ISO-10303-21;

